<svg width="20" height="20" viewBox="0 0 20 20" fill="none" xmlns="http://www.w3.org/2000/svg">
<path fill-rule="evenodd" clip-rule="evenodd" d="M15.3912 17.1083C15.6353 17.3524 16.031 17.3524 16.2751 17.1083L17.9418 15.4416C18.1859 15.1975 18.1859 14.8018 17.9418 14.5577C17.6977 14.3137 17.302 14.3137 17.0579 14.5577L16.4582 15.1575V11.6663C16.4582 11.3212 16.1783 11.0413 15.8332 11.0413C15.488 11.0413 15.2082 11.3212 15.2082 11.6663V15.1575L14.6084 14.5577C14.3644 14.3137 13.9686 14.3137 13.7246 14.5577C13.4805 14.8018 13.4805 15.1975 13.7246 15.4416L15.3912 17.1083Z" fill="#FC4C5D"/>
<path d="M8.33317 3.33301H11.6665C14.8092 3.33301 16.3805 3.33301 17.3569 4.30932C18.0598 5.01227 18.2566 6.02369 18.3117 7.70801H1.68793C1.74304 6.02369 1.93986 5.01227 2.64281 4.30932C3.61913 3.33301 5.19047 3.33301 8.33317 3.33301Z" fill="#FC4C5D"/>
<path fill-rule="evenodd" clip-rule="evenodd" d="M8.33317 16.6663H11.6665C12.2161 16.6663 12.7176 16.6663 13.1763 16.6611L12.8407 16.3255C12.1084 15.5933 12.1084 14.4061 12.8407 13.6738C13.1537 13.3608 13.5499 13.1816 13.9582 13.1362V11.6663C13.9582 10.6308 14.7976 9.79134 15.8332 9.79134C16.8687 9.79134 17.7082 10.6308 17.7082 11.6663V13.1362C17.8947 13.1569 18.0787 13.2056 18.2535 13.2822C18.3332 12.4306 18.3332 11.363 18.3332 9.99967C18.3332 9.6314 18.3332 9.2847 18.3316 8.95801H1.66807C1.6665 9.2847 1.6665 9.6314 1.6665 9.99967C1.6665 13.1424 1.6665 14.7137 2.64281 15.69C3.61913 16.6663 5.19047 16.6663 8.33317 16.6663ZM4.99984 12.708C4.65466 12.708 4.37484 12.9878 4.37484 13.333C4.37484 13.6782 4.65466 13.958 4.99984 13.958H8.33317C8.67835 13.958 8.95817 13.6782 8.95817 13.333C8.95817 12.9878 8.67835 12.708 8.33317 12.708H4.99984ZM10.4165 12.708C10.0713 12.708 9.7915 12.9878 9.7915 13.333C9.7915 13.6782 10.0713 13.958 10.4165 13.958H11.6665C12.0117 13.958 12.2915 13.6782 12.2915 13.333C12.2915 12.9878 12.0117 12.708 11.6665 12.708H10.4165Z" fill="#FC4C5D"/>
</svg>
