<svg width="20" height="20" viewBox="0 0 20 20" fill="none" xmlns="http://www.w3.org/2000/svg">
<path d="M9.37464 1.66663C5.85938 1.67005 4.04057 1.73294 2.88669 2.88682C1.73282 4.04069 1.66993 5.8595 1.6665 9.37476H5.7611C5.46863 9.00943 5.25009 8.57851 5.13093 8.10186C4.68238 6.30768 6.30756 4.68251 8.10174 5.13105C8.57839 5.25021 9.00931 5.46875 9.37464 5.76122V1.66663Z" fill="url(#paint0_linear_82_1030)"/>
<path d="M1.6665 10.6248C1.66993 14.14 1.73282 15.9588 2.88669 17.1127C4.04057 18.2666 5.85938 18.3295 9.37464 18.3329V11.7695C8.72494 13.0672 7.383 13.9581 5.83297 13.9581C5.4878 13.9581 5.20797 13.6783 5.20797 13.3331C5.20797 12.9879 5.4878 12.7081 5.83297 12.7081C7.11363 12.7081 8.18668 11.8192 8.46884 10.6248H1.6665Z" fill="url(#paint1_linear_82_1030)"/>
<path d="M10.6246 18.3329C14.1399 18.3295 15.9587 18.2666 17.1126 17.1127C18.2665 15.9588 18.3294 14.14 18.3328 10.6248H11.5304C11.8126 11.8192 12.8856 12.7081 14.1663 12.7081C14.5115 12.7081 14.7913 12.9879 14.7913 13.3331C14.7913 13.6783 14.5115 13.9581 14.1663 13.9581C12.6163 13.9581 11.2743 13.0672 10.6246 11.7695V18.3329Z" fill="url(#paint2_linear_82_1030)"/>
<path d="M18.3328 9.37476C18.3294 5.8595 18.2665 4.04069 17.1126 2.88682C15.9587 1.73294 14.1399 1.67005 10.6246 1.66663V5.76122C10.99 5.46875 11.4209 5.25021 11.8975 5.13105C13.6917 4.68251 15.3169 6.30768 14.8684 8.10186C14.7492 8.57851 14.5307 9.00943 14.2382 9.37476H18.3328Z" fill="url(#paint3_linear_82_1030)"/>
<path d="M7.79857 6.34373C8.72484 6.5753 9.37464 7.40755 9.37464 8.36233V9.37476H8.36221C7.40743 9.37476 6.57517 8.72496 6.34361 7.79869C6.12393 6.91998 6.91986 6.12405 7.79857 6.34373Z" fill="url(#paint4_linear_82_1030)"/>
<path d="M10.6246 8.36233V9.37476H11.6371C12.5919 9.37476 13.4241 8.72496 13.6557 7.79869C13.8753 6.91998 13.0794 6.12405 12.2007 6.34373C11.2744 6.5753 10.6246 7.40755 10.6246 8.36233Z" fill="url(#paint5_linear_82_1030)"/>
<defs>
<linearGradient id="paint0_linear_82_1030" x1="1.6665" y1="9.99976" x2="18.3328" y2="9.99976" gradientUnits="userSpaceOnUse">
<stop stop-color="#982214"/>
<stop offset="1" stop-color="#F8CB48"/>
</linearGradient>
<linearGradient id="paint1_linear_82_1030" x1="1.6665" y1="9.99976" x2="18.3328" y2="9.99976" gradientUnits="userSpaceOnUse">
<stop stop-color="#982214"/>
<stop offset="1" stop-color="#F8CB48"/>
</linearGradient>
<linearGradient id="paint2_linear_82_1030" x1="1.6665" y1="9.99976" x2="18.3328" y2="9.99976" gradientUnits="userSpaceOnUse">
<stop stop-color="#982214"/>
<stop offset="1" stop-color="#F8CB48"/>
</linearGradient>
<linearGradient id="paint3_linear_82_1030" x1="1.6665" y1="9.99976" x2="18.3328" y2="9.99976" gradientUnits="userSpaceOnUse">
<stop stop-color="#982214"/>
<stop offset="1" stop-color="#F8CB48"/>
</linearGradient>
<linearGradient id="paint4_linear_82_1030" x1="1.6665" y1="9.99976" x2="18.3328" y2="9.99976" gradientUnits="userSpaceOnUse">
<stop stop-color="#982214"/>
<stop offset="1" stop-color="#F8CB48"/>
</linearGradient>
<linearGradient id="paint5_linear_82_1030" x1="1.6665" y1="9.99976" x2="18.3328" y2="9.99976" gradientUnits="userSpaceOnUse">
<stop stop-color="#982214"/>
<stop offset="1" stop-color="#F8CB48"/>
</linearGradient>
</defs>
</svg>
