<svg width="20" height="20" viewBox="0 0 20 20" fill="none" xmlns="http://www.w3.org/2000/svg">
<path d="M9.37464 1.66602C5.85938 1.66944 4.04057 1.73233 2.88669 2.88621C1.73282 4.04008 1.66993 5.85889 1.6665 9.37415H5.7611C5.46863 9.00882 5.25009 8.5779 5.13093 8.10125C4.68238 6.30707 6.30756 4.6819 8.10174 5.13044C8.57839 5.2496 9.00931 5.46814 9.37464 5.76061V1.66602Z" fill="#00AF50"/>
<path d="M1.6665 10.6242C1.66993 14.1394 1.73282 15.9582 2.88669 17.1121C4.04057 18.266 5.85938 18.3289 9.37464 18.3323V11.7689C8.72494 13.0666 7.383 13.9575 5.83297 13.9575C5.4878 13.9575 5.20797 13.6777 5.20797 13.3325C5.20797 12.9873 5.4878 12.7075 5.83297 12.7075C7.11363 12.7075 8.18668 11.8186 8.46884 10.6242H1.6665Z" fill="#00AF50"/>
<path d="M10.6246 18.3323C14.1399 18.3289 15.9587 18.266 17.1126 17.1121C18.2665 15.9582 18.3293 14.1394 18.3328 10.6242H11.5304C11.8126 11.8186 12.8856 12.7075 14.1663 12.7075C14.5115 12.7075 14.7913 12.9873 14.7913 13.3325C14.7913 13.6777 14.5115 13.9575 14.1663 13.9575C12.6163 13.9575 11.2743 13.0666 10.6246 11.7689V18.3323Z" fill="#00AF50"/>
<path d="M18.3328 9.37415C18.3293 5.85889 18.2665 4.04008 17.1126 2.88621C15.9587 1.73233 14.1399 1.66944 10.6246 1.66602V5.76061C10.99 5.46814 11.4209 5.2496 11.8975 5.13044C13.6917 4.6819 15.3169 6.30707 14.8684 8.10125C14.7492 8.5779 14.5307 9.00882 14.2382 9.37415H18.3328Z" fill="#00AF50"/>
<path d="M7.79857 6.34312C8.72484 6.57469 9.37464 7.40694 9.37464 8.36172V9.37415H8.36221C7.40743 9.37415 6.57517 8.72435 6.34361 7.79808C6.12393 6.91937 6.91986 6.12344 7.79857 6.34312Z" fill="#00AF50"/>
<path d="M10.6246 8.36172V9.37415H11.6371C12.5919 9.37415 13.4241 8.72435 13.6557 7.79808C13.8753 6.91937 13.0794 6.12344 12.2007 6.34312C11.2744 6.57469 10.6246 7.40694 10.6246 8.36172Z" fill="#00AF50"/>
</svg>
