<svg width="53" height="24" viewBox="0 0 53 24" fill="none" xmlns="http://www.w3.org/2000/svg">
<g filter="url(#filter0_i_633_74331)">
<rect width="53" height="24" rx="12" fill="white"/>
<rect x="0.1" y="0.1" width="52.8" height="23.8" rx="11.9" stroke="#E0E0E0" stroke-width="0.2"/>
<path d="M18 10.0007L20.6667 7.33398M20.6667 7.33398V9.33398M20.6667 7.33398H18.6667" stroke="#A58730" stroke-width="1.5" stroke-linecap="round" stroke-linejoin="round"/>
<path d="M10.6711 9.28807C10.6229 10.5602 10.9448 12.7205 13.1119 14.8875C13.6347 15.4104 14.1571 15.8258 14.6667 16.1545M11.692 7.29084C12.6206 6.3622 14.1022 6.48697 14.6918 7.54346L15.1245 8.31875C15.5149 9.0184 15.3582 9.93623 14.7432 10.5512C14.7432 10.5512 14.7432 10.5512 14.7432 10.5512C14.7431 10.5513 13.9974 11.2973 15.3498 12.6497C16.7015 14.0014 17.4474 13.257 17.4482 13.2562C17.4482 13.2562 17.4482 13.2562 17.4482 13.2562C18.0632 12.6412 18.981 12.4845 19.6807 12.8749L20.456 13.3076C21.5125 13.8972 21.6372 15.3788 20.7086 16.3075C20.1506 16.8655 19.467 17.2997 18.7114 17.3283C18.1687 17.3489 17.4643 17.3021 16.6667 17.0734" stroke="#A58730" stroke-width="1.5" stroke-linecap="round"/>
<path d="M32.1425 15.61C31.6225 15.61 31.1392 15.52 30.6925 15.34C30.2525 15.1533 29.8625 14.8967 29.5225 14.57C29.1892 14.2367 28.9292 13.8533 28.7425 13.42C28.5625 12.98 28.4725 12.5067 28.4725 12C28.4725 11.4933 28.5625 11.0233 28.7425 10.59C28.9292 10.15 29.1892 9.76667 29.5225 9.44C29.8625 9.10667 30.2558 8.85 30.7025 8.67C31.1492 8.48333 31.6292 8.39 32.1425 8.39C32.5092 8.39 32.8658 8.44 33.2125 8.54C33.5658 8.63333 33.8892 8.77 34.1825 8.95C34.4825 9.13 34.7425 9.34667 34.9625 9.6L34.2625 10.32C34.0025 10.0067 33.6858 9.77 33.3125 9.61C32.9392 9.44333 32.5492 9.36 32.1425 9.36C31.7692 9.36 31.4225 9.42667 31.1025 9.56C30.7892 9.69333 30.5158 9.88 30.2825 10.12C30.0492 10.3533 29.8658 10.63 29.7325 10.95C29.6058 11.27 29.5425 11.62 29.5425 12C29.5425 12.3733 29.6058 12.72 29.7325 13.04C29.8658 13.36 30.0525 13.64 30.2925 13.88C30.5325 14.12 30.8125 14.3067 31.1325 14.44C31.4525 14.5733 31.7992 14.64 32.1725 14.64C32.5792 14.64 32.9625 14.56 33.3225 14.4C33.6892 14.2333 33.9992 14 34.2525 13.7L34.9425 14.4C34.7092 14.6467 34.4425 14.8633 34.1425 15.05C33.8492 15.23 33.5292 15.37 33.1825 15.47C32.8425 15.5633 32.4958 15.61 32.1425 15.61ZM37.4598 15.59C37.0931 15.59 36.7698 15.5267 36.4898 15.4C36.2098 15.2667 35.9898 15.0833 35.8298 14.85C35.6698 14.6167 35.5898 14.3467 35.5898 14.04C35.5898 13.56 35.7731 13.1833 36.1398 12.91C36.5064 12.63 37.0098 12.49 37.6498 12.49C38.1498 12.49 38.6131 12.5867 39.0398 12.78V12.24C39.0398 11.8733 38.9331 11.6 38.7198 11.42C38.5131 11.24 38.2064 11.15 37.7998 11.15C37.5664 11.15 37.3231 11.1867 37.0698 11.26C36.8164 11.3267 36.5331 11.4333 36.2198 11.58L35.8498 10.83C36.2364 10.65 36.5964 10.52 36.9298 10.44C37.2631 10.3533 37.5998 10.31 37.9398 10.31C38.5998 10.31 39.1098 10.4667 39.4698 10.78C39.8364 11.0933 40.0198 11.54 40.0198 12.12V15.5H39.0398V15.06C38.8131 15.24 38.5698 15.3733 38.3098 15.46C38.0498 15.5467 37.7664 15.59 37.4598 15.59ZM36.5498 14.02C36.5498 14.2667 36.6531 14.4667 36.8598 14.62C37.0731 14.7733 37.3498 14.85 37.6898 14.85C37.9564 14.85 38.1998 14.81 38.4198 14.73C38.6464 14.65 38.8531 14.5267 39.0398 14.36V13.5C38.8464 13.3867 38.6431 13.3067 38.4298 13.26C38.2231 13.2067 37.9898 13.18 37.7298 13.18C37.3631 13.18 37.0731 13.2567 36.8598 13.41C36.6531 13.5567 36.5498 13.76 36.5498 14.02ZM41.172 15.5V8.5L42.172 8.31V15.5H41.172ZM43.3498 15.5V8.5L44.3498 8.31V15.5H43.3498Z" fill="#050505"/>
</g>
<defs>
<filter id="filter0_i_633_74331" x="0" y="0" width="54" height="26" filterUnits="userSpaceOnUse" color-interpolation-filters="sRGB">
<feFlood flood-opacity="0" result="BackgroundImageFix"/>
<feBlend mode="normal" in="SourceGraphic" in2="BackgroundImageFix" result="shape"/>
<feColorMatrix in="SourceAlpha" type="matrix" values="0 0 0 0 0 0 0 0 0 0 0 0 0 0 0 0 0 0 127 0" result="hardAlpha"/>
<feOffset dx="1" dy="2"/>
<feGaussianBlur stdDeviation="2"/>
<feComposite in2="hardAlpha" operator="arithmetic" k2="-1" k3="1"/>
<feColorMatrix type="matrix" values="0 0 0 0 0 0 0 0 0 0 0 0 0 0 0 0 0 0 0.15 0"/>
<feBlend mode="normal" in2="shape" result="effect1_innerShadow_633_74331"/>
</filter>
</defs>
</svg>
