<svg width="16" height="16" viewBox="0 0 16 16" fill="none" xmlns="http://www.w3.org/2000/svg">
<g clip-path="url(#clip0_1550_37013)">
<path fillrule="evenodd" cliprule="evenodd" d="M7.99967 1.83203C4.59392 1.83203 1.83301 4.59294 1.83301 7.9987C1.83301 11.4045 4.59392 14.1654 7.99967 14.1654C11.4054 14.1654 14.1663 11.4045 14.1663 7.9987C14.1663 4.59294 11.4054 1.83203 7.99967 1.83203ZM0.833008 7.9987C0.833008 4.04066 4.04163 0.832031 7.99967 0.832031C11.9577 0.832031 15.1663 4.04066 15.1663 7.9987C15.1663 11.9567 11.9577 15.1654 7.99967 15.1654C4.04163 15.1654 0.833008 11.9567 0.833008 7.9987ZM7.99967 4.83203C8.27582 4.83203 8.49967 5.05589 8.49967 5.33203V7.79159L10.0199 9.31181C10.2152 9.50707 10.2152 9.82366 10.0199 10.0189C9.82463 10.2142 9.50805 10.2142 9.31279 10.0189L7.64612 8.35225C7.55235 8.25848 7.49967 8.13131 7.49967 7.9987V5.33203C7.49967 5.05589 7.72353 4.83203 7.99967 4.83203Z" fill="#828DA9"/>
</g>
<defs>
<clipPath id="clip0_1550_37013">
<rect width="16" height="16" fill="white"/>
</clipPath>
</defs>
</svg>
