<svg width="16" height="16" viewBox="0 0 16 16" fill="none" xmlns="http://www.w3.org/2000/svg">
<path d="M10.6666 4.00065C10.6666 5.47341 9.47268 6.66732 7.99992 6.66732C6.52716 6.66732 5.33325 5.47341 5.33325 4.00065C5.33325 2.52789 6.52716 1.33398 7.99992 1.33398C9.47268 1.33398 10.6666 2.52789 10.6666 4.00065Z" fill="url(#paint0_linear_633_74224)"/>
<path d="M10.4522 9.00121C10.1368 9.00503 9.84287 9.01653 9.58669 9.05097C9.15811 9.10859 8.68899 9.24632 8.30136 9.63394C7.91374 10.0216 7.77601 10.4907 7.71839 10.9193C7.66661 11.3044 7.66668 11.775 7.66675 12.2754V12.39C7.66668 12.8904 7.66661 13.3609 7.71839 13.7461C7.75882 14.0468 7.8387 14.3675 8.01669 14.666C8.01116 14.666 8.00562 14.666 8.00008 14.666C2.66675 14.666 2.66675 13.3229 2.66675 11.666C2.66675 10.0092 5.05456 8.66602 8.00008 8.66602C8.8842 8.66602 9.71808 8.78703 10.4522 9.00121Z" fill="url(#paint1_linear_633_74224)"/>
<path fillrule="evenodd" cliprule="evenodd" d="M9.00846 14.325C9.35017 14.6667 9.90014 14.6667 11.0001 14.6667C12.1 14.6667 12.65 14.6667 12.9917 14.325C13.3334 13.9832 13.3334 13.4333 13.3334 12.3333C13.3334 11.2334 13.3334 10.6834 12.9917 10.3417C12.65 10 12.1 10 11.0001 10C9.90014 10 9.35017 10 9.00846 10.3417C8.66675 10.6834 8.66675 11.2334 8.66675 12.3333C8.66675 13.4333 8.66675 13.9832 9.00846 14.325ZM10.3511 13.3176C9.88311 12.9825 9.33341 12.5889 9.33341 11.9065C9.33341 11.1532 10.2501 10.619 11.0001 11.3432C11.7501 10.619 12.6667 11.1532 12.6667 11.9065C12.6667 12.5889 12.117 12.9825 11.649 13.3176C11.6004 13.3525 11.5526 13.3867 11.5065 13.4205C11.3334 13.5473 11.1667 13.6667 11.0001 13.6667C10.8334 13.6667 10.6667 13.5473 10.4937 13.4205C10.4475 13.3867 10.3998 13.3525 10.3511 13.3176Z" fill="url(#paint2_linear_633_74224)"/>
<defs>
<linearGradient id="paint0_linear_633_74224" x1="5.33325" y1="4.00065" x2="10.6666" y2="4.00065" gradientUnits="userSpaceOnUse">
<stop stop-color="#982214"/>
<stop offset="1" stop-color="#F8CB48"/>
</linearGradient>
<linearGradient id="paint1_linear_633_74224" x1="2.66675" y1="11.666" x2="10.4522" y2="11.666" gradientUnits="userSpaceOnUse">
<stop stop-color="#982214"/>
<stop offset="1" stop-color="#F8CB48"/>
</linearGradient>
<linearGradient id="paint2_linear_633_74224" x1="8.66675" y1="12.3333" x2="13.3334" y2="12.3333" gradientUnits="userSpaceOnUse">
<stop stop-color="#982214"/>
<stop offset="1" stop-color="#F8CB48"/>
</linearGradient>
</defs>
</svg>
