<svg width="16" height="16" viewBox="0 0 16 16" fill="none" xmlns="http://www.w3.org/2000/svg">
<rect x="0.1" y="0.1" width="15.8" height="15.8" rx="7.9" fill="#F8CB48"/>
<rect x="0.1" y="0.1" width="15.8" height="15.8" rx="7.9" stroke="#A58730" stroke-width="0.2"/>
<g clip-path="url(#clip0_310_64011)">
<path fillrule="evenodd" cliprule="evenodd" d="M5.91683 3.729C6.08942 3.729 6.22933 3.86891 6.22933 4.0415V4.3593C6.50518 4.354 6.80908 4.354 7.14332 4.354H8.857C9.19125 4.354 9.49515 4.354 9.771 4.3593V4.0415C9.771 3.86891 9.91091 3.729 10.0835 3.729C10.2561 3.729 10.396 3.86891 10.396 4.0415V4.38612C10.5043 4.39438 10.6069 4.40476 10.7039 4.41781C11.1924 4.48349 11.5878 4.62187 11.8996 4.93369C12.2115 5.24551 12.3498 5.6409 12.4155 6.12941C12.4365 6.28553 12.4506 6.45591 12.4601 6.64153C12.4725 6.67528 12.4793 6.71176 12.4793 6.74984C12.4793 6.77872 12.4754 6.80669 12.4681 6.83324C12.4793 7.1674 12.4793 7.54682 12.4793 7.97633V8.85668C12.4793 9.62241 12.4793 10.2289 12.4155 10.7036C12.3498 11.1921 12.2115 11.5875 11.8996 11.8993C11.5878 12.2111 11.1924 12.3495 10.7039 12.4152C10.2292 12.479 9.62274 12.479 8.857 12.479H7.14333C6.37759 12.479 5.77108 12.479 5.2964 12.4152C4.80789 12.3495 4.4125 12.2111 4.10068 11.8993C3.78886 11.5875 3.65048 11.1921 3.5848 10.7036C3.52098 10.2289 3.52099 9.62241 3.521 8.85668V7.97633C3.52099 7.54682 3.52099 7.1674 3.53225 6.83324C3.52492 6.80669 3.521 6.77872 3.521 6.74984C3.521 6.71176 3.52781 6.67527 3.54027 6.64153C3.54973 6.45591 3.56381 6.28553 3.5848 6.12941C3.65048 5.6409 3.78886 5.24551 4.10068 4.93369C4.4125 4.62187 4.80789 4.48349 5.2964 4.41781C5.39346 4.40476 5.49602 4.39438 5.60433 4.38612V4.0415C5.60433 3.86891 5.74424 3.729 5.91683 3.729ZM4.15145 7.06234C4.14613 7.33431 4.146 7.644 4.146 7.99984V8.83317C4.146 9.62768 4.14666 10.1921 4.20423 10.6203C4.26059 11.0395 4.36629 11.281 4.54262 11.4574C4.71896 11.6337 4.96048 11.7394 5.37968 11.7958C5.80788 11.8533 6.37232 11.854 7.16683 11.854H8.8335C9.62801 11.854 10.1924 11.8533 10.6206 11.7958C11.0398 11.7394 11.2814 11.6337 11.4577 11.4574C11.634 11.281 11.7397 11.0395 11.7961 10.6203C11.8537 10.1921 11.8543 9.62768 11.8543 8.83317V7.99984C11.8543 7.644 11.8542 7.33431 11.8489 7.06234H4.15145ZM11.8203 6.43734H4.18003C4.1867 6.35842 4.19468 6.28368 4.20423 6.21269C4.26059 5.79349 4.36629 5.55197 4.54262 5.37563C4.71896 5.19929 4.96048 5.0936 5.37968 5.03724C5.80788 4.97967 6.37232 4.979 7.16683 4.979H8.8335C9.62801 4.979 10.1924 4.97967 10.6206 5.03724C11.0398 5.0936 11.2814 5.19929 11.4577 5.37563C11.634 5.55197 11.7397 5.79349 11.7961 6.21269C11.8056 6.28368 11.8136 6.35842 11.8203 6.43734ZM9.87516 9.56234C9.70257 9.56234 9.56266 9.70225 9.56266 9.87484C9.56266 10.0474 9.70257 10.1873 9.87516 10.1873C10.0478 10.1873 10.1877 10.0474 10.1877 9.87484C10.1877 9.70225 10.0478 9.56234 9.87516 9.56234ZM8.93766 9.87484C8.93766 9.35707 9.3574 8.93734 9.87516 8.93734C10.3929 8.93734 10.8127 9.35707 10.8127 9.87484C10.8127 10.3926 10.3929 10.8123 9.87516 10.8123C9.3574 10.8123 8.93766 10.3926 8.93766 9.87484Z" fill="#32290E"/>
</g>
<defs>
<clipPath id="clip0_310_64011">
<rect width="10" height="10" fill="white" transform="translate(3 3)"/>
</clipPath>
</defs>
</svg>
