<svg width="16" height="16" viewBox="0 0 16 16" fill="none" xmlns="http://www.w3.org/2000/svg">
<path d="M1.83631 9.81002L2.1814 11.0979C2.58423 12.6013 2.78564 13.353 3.24226 13.8405C3.6028 14.2255 4.06939 14.4949 4.58303 14.6146C5.23354 14.7663 5.98524 14.5649 7.48863 14.162C8.99201 13.7592 9.74371 13.5578 10.2312 13.1012C10.2717 13.0633 10.3109 13.0242 10.3488 12.984C10.126 12.9653 9.90124 12.9295 9.67287 12.8841C9.2088 12.7918 8.65737 12.644 8.00525 12.4693L7.93404 12.4502L7.91755 12.4458C7.20797 12.2557 6.61513 12.0965 6.14176 11.9255C5.64397 11.7457 5.19165 11.524 4.80757 11.1643C4.27827 10.6685 3.90787 10.027 3.74319 9.3207C3.6237 8.80821 3.65786 8.30565 3.75103 7.78463C3.84031 7.28535 4.00065 6.687 4.19275 5.97011L4.19276 5.97009L4.54902 4.64051L4.56155 4.59375C3.28119 4.93866 2.60726 5.14272 2.15783 5.56365C1.77289 5.92419 1.5035 6.39078 1.38374 6.90442C1.23206 7.55494 1.43347 8.30663 1.83631 9.81002Z" fill="url(#paint0_linear_633_74189)"/>
<path fillrule="evenodd" cliprule="evenodd" d="M13.8862 7.14427L13.5412 8.43217C13.1383 9.93555 12.9369 10.6872 12.4803 11.1748C12.1198 11.5597 11.6532 11.8291 11.1395 11.9489C11.0753 11.9638 11.0102 11.9754 10.9434 11.9836C10.3334 12.0588 9.58899 11.8594 8.23393 11.4963C6.73055 11.0935 5.97885 10.892 5.49133 10.4354C5.10638 10.0749 4.837 9.6083 4.71723 9.09467C4.56555 8.44415 4.76697 7.69246 5.1698 6.18907L5.51489 4.90117C5.57281 4.68501 5.62661 4.48425 5.67755 4.29773C5.98094 3.18703 6.18481 2.57597 6.57576 2.15856C6.93629 1.77362 7.40288 1.50423 7.91652 1.38447C8.56704 1.23279 9.31873 1.43421 10.8221 1.83704C12.3255 2.23987 13.0772 2.44129 13.5647 2.8979C13.9497 3.25844 14.2191 3.72503 14.3388 4.23867C14.4905 4.88918 14.2891 5.64088 13.8862 7.14427ZM7.36836 6.53791C7.43983 6.27118 7.714 6.11288 7.98073 6.18435L11.2005 7.04709C11.4672 7.11856 11.6255 7.39272 11.554 7.65946C11.4826 7.92619 11.2084 8.08448 10.9417 8.01301L7.72191 7.15028C7.45518 7.07881 7.29689 6.80464 7.36836 6.53791ZM6.85045 8.46955C6.92192 8.20282 7.19609 8.04452 7.46282 8.116L9.39468 8.63363C9.66141 8.7051 9.8197 8.97927 9.74823 9.24601C9.67676 9.51274 9.40259 9.67103 9.13586 9.59956L7.20401 9.08192C6.93727 9.01045 6.77898 8.73628 6.85045 8.46955Z" fill="url(#paint1_linear_633_74189)"/>
<defs>
<linearGradient id="paint0_linear_633_74189" x1="1.33325" y1="9.62943" x2="10.3488" y2="9.62943" gradientUnits="userSpaceOnUse">
<stop stop-color="#982214"/>
<stop offset="1" stop-color="#F8CB48"/>
</linearGradient>
<linearGradient id="paint1_linear_633_74189" x1="4.66675" y1="6.66667" x2="14.3893" y2="6.66667" gradientUnits="userSpaceOnUse">
<stop stop-color="#982214"/>
<stop offset="1" stop-color="#F8CB48"/>
</linearGradient>
</defs>
</svg>
