<svg width="77" height="24" viewBox="0 0 77 24" fill="none" xmlns="http://www.w3.org/2000/svg">
<g filter="url(#filter0_i_633_74332)">
<rect width="77" height="24" rx="12" fill="white"/>
<rect x="0.1" y="0.1" width="76.8" height="23.8" rx="11.9" stroke="#E0E0E0" stroke-width="0.2"/>
<g clip-path="url(#clip0_633_74332)">
<path d="M16 14.6673V9.33398" stroke="#A58730" stroke-width="1.5" stroke-linecap="round"/>
<path d="M13.3333 13.3327V10.666" stroke="#A58730" stroke-width="1.5" stroke-linecap="round"/>
<path d="M18.6667 13.3327V10.666" stroke="#A58730" stroke-width="1.5" stroke-linecap="round"/>
<path d="M19.3334 6.22587C18.3528 5.65863 17.2144 5.33398 16.0001 5.33398C12.3182 5.33398 9.33341 8.31875 9.33341 12.0007C9.33341 13.0671 9.58382 14.0751 10.0291 14.969C10.1474 15.2065 10.1868 15.478 10.1182 15.7344L9.72109 17.2184C9.54872 17.8626 10.1381 18.452 10.7823 18.2796L12.2663 17.8826C12.5227 17.814 12.7942 17.8534 13.0318 17.9717C13.9257 18.4169 14.9336 18.6673 16.0001 18.6673C19.682 18.6673 22.6667 15.6826 22.6667 12.0007C22.6667 10.7864 22.3421 9.6479 21.7749 8.66732" stroke="#A58730" stroke-width="1.5" stroke-linecap="round"/>
</g>
<path d="M28.7998 15.5V8.5H30.2098L32.3998 12.98L34.5898 8.5H35.9898V15.5H34.9998V9.78L32.3898 15L29.7798 9.78V15.5H28.7998ZM39.7331 15.59C39.2331 15.59 38.7798 15.4733 38.3731 15.24C37.9731 15.0067 37.6531 14.69 37.4131 14.29C37.1798 13.89 37.0631 13.4433 37.0631 12.95C37.0631 12.4633 37.1765 12.0233 37.4031 11.63C37.6298 11.23 37.9365 10.9133 38.3231 10.68C38.7098 10.44 39.1398 10.32 39.6131 10.32C40.0865 10.32 40.5065 10.44 40.8731 10.68C41.2398 10.9133 41.5298 11.2333 41.7431 11.64C41.9631 12.04 42.0731 12.4933 42.0731 13V13.28H38.0631C38.1165 13.56 38.2198 13.81 38.3731 14.03C38.5331 14.25 38.7331 14.4233 38.9731 14.55C39.2198 14.6767 39.4865 14.74 39.7731 14.74C40.0198 14.74 40.2565 14.7033 40.4831 14.63C40.7165 14.55 40.9098 14.4367 41.0631 14.29L41.7031 14.92C41.4031 15.1467 41.0931 15.3167 40.7731 15.43C40.4598 15.5367 40.1131 15.59 39.7331 15.59ZM38.0731 12.53H41.0831C41.0431 12.2633 40.9498 12.03 40.8031 11.83C40.6631 11.6233 40.4865 11.4633 40.2731 11.35C40.0665 11.23 39.8398 11.17 39.5931 11.17C39.3398 11.17 39.1065 11.2267 38.8931 11.34C38.6798 11.4533 38.4998 11.6133 38.3531 11.82C38.2131 12.02 38.1198 12.2567 38.0731 12.53ZM44.8244 15.6C44.3844 15.6 43.971 15.5367 43.5844 15.41C43.2044 15.2767 42.8744 15.09 42.5944 14.85L43.1444 14.19C43.4044 14.3967 43.671 14.5567 43.9444 14.67C44.2244 14.7767 44.5077 14.83 44.7944 14.83C45.1544 14.83 45.4477 14.76 45.6744 14.62C45.901 14.48 46.0144 14.2967 46.0144 14.07C46.0144 13.8833 45.9477 13.7367 45.8144 13.63C45.681 13.5233 45.4744 13.45 45.1944 13.41L44.2744 13.28C43.7677 13.2067 43.3877 13.05 43.1344 12.81C42.881 12.57 42.7544 12.25 42.7544 11.85C42.7544 11.5433 42.8377 11.2767 43.0044 11.05C43.171 10.8167 43.4044 10.6367 43.7044 10.51C44.0044 10.3767 44.3544 10.31 44.7544 10.31C45.121 10.31 45.4744 10.3633 45.8144 10.47C46.1544 10.5767 46.481 10.7433 46.7944 10.97L46.2844 11.63C46.0044 11.4433 45.731 11.3067 45.4644 11.22C45.2044 11.1333 44.941 11.09 44.6744 11.09C44.3677 11.09 44.121 11.1567 43.9344 11.29C43.7477 11.4167 43.6544 11.5833 43.6544 11.79C43.6544 11.9767 43.7177 12.1233 43.8444 12.23C43.9777 12.33 44.1944 12.4 44.4944 12.44L45.4144 12.57C45.921 12.6433 46.3044 12.8 46.5644 13.04C46.8244 13.2733 46.9544 13.59 46.9544 13.99C46.9544 14.2967 46.861 14.5733 46.6744 14.82C46.4877 15.06 46.2344 15.25 45.9144 15.39C45.5944 15.53 45.231 15.6 44.8244 15.6ZM49.4728 15.6C49.0328 15.6 48.6195 15.5367 48.2328 15.41C47.8528 15.2767 47.5228 15.09 47.2428 14.85L47.7928 14.19C48.0528 14.3967 48.3195 14.5567 48.5928 14.67C48.8728 14.7767 49.1561 14.83 49.4428 14.83C49.8028 14.83 50.0961 14.76 50.3228 14.62C50.5495 14.48 50.6628 14.2967 50.6628 14.07C50.6628 13.8833 50.5961 13.7367 50.4628 13.63C50.3295 13.5233 50.1228 13.45 49.8428 13.41L48.9228 13.28C48.4161 13.2067 48.0361 13.05 47.7828 12.81C47.5295 12.57 47.4028 12.25 47.4028 11.85C47.4028 11.5433 47.4861 11.2767 47.6528 11.05C47.8195 10.8167 48.0528 10.6367 48.3528 10.51C48.6528 10.3767 49.0028 10.31 49.4028 10.31C49.7695 10.31 50.1228 10.3633 50.4628 10.47C50.8028 10.5767 51.1295 10.7433 51.4428 10.97L50.9328 11.63C50.6528 11.4433 50.3795 11.3067 50.1128 11.22C49.8528 11.1333 49.5895 11.09 49.3228 11.09C49.0161 11.09 48.7695 11.1567 48.5828 11.29C48.3961 11.4167 48.3028 11.5833 48.3028 11.79C48.3028 11.9767 48.3661 12.1233 48.4928 12.23C48.6261 12.33 48.8428 12.4 49.1428 12.44L50.0628 12.57C50.5695 12.6433 50.9528 12.8 51.2128 13.04C51.4728 13.2733 51.6028 13.59 51.6028 13.99C51.6028 14.2967 51.5095 14.5733 51.3228 14.82C51.1361 15.06 50.8828 15.25 50.5628 15.39C50.2428 15.53 49.8795 15.6 49.4728 15.6ZM54.0301 15.59C53.6634 15.59 53.3401 15.5267 53.0601 15.4C52.7801 15.2667 52.5601 15.0833 52.4001 14.85C52.2401 14.6167 52.1601 14.3467 52.1601 14.04C52.1601 13.56 52.3434 13.1833 52.7101 12.91C53.0767 12.63 53.5801 12.49 54.2201 12.49C54.7201 12.49 55.1834 12.5867 55.6101 12.78V12.24C55.6101 11.8733 55.5034 11.6 55.2901 11.42C55.0834 11.24 54.7767 11.15 54.3701 11.15C54.1367 11.15 53.8934 11.1867 53.6401 11.26C53.3867 11.3267 53.1034 11.4333 52.7901 11.58L52.4201 10.83C52.8067 10.65 53.1667 10.52 53.5001 10.44C53.8334 10.3533 54.1701 10.31 54.5101 10.31C55.1701 10.31 55.6801 10.4667 56.0401 10.78C56.4067 11.0933 56.5901 11.54 56.5901 12.12V15.5H55.6101V15.06C55.3834 15.24 55.1401 15.3733 54.8801 15.46C54.6201 15.5467 54.3367 15.59 54.0301 15.59ZM53.1201 14.02C53.1201 14.2667 53.2234 14.4667 53.4301 14.62C53.6434 14.7733 53.9201 14.85 54.2601 14.85C54.5267 14.85 54.7701 14.81 54.9901 14.73C55.2167 14.65 55.4234 14.5267 55.6101 14.36V13.5C55.4167 13.3867 55.2134 13.3067 55.0001 13.26C54.7934 13.2067 54.5601 13.18 54.3001 13.18C53.9334 13.18 53.6434 13.2567 53.4301 13.41C53.2234 13.5567 53.1201 13.76 53.1201 14.02ZM60.2623 17.64C59.889 17.64 59.5257 17.5967 59.1723 17.51C58.819 17.4233 58.499 17.3 58.2123 17.14L58.5923 16.36C58.8923 16.5133 59.1723 16.6233 59.4323 16.69C59.699 16.7633 59.9657 16.8 60.2323 16.8C60.679 16.8 61.0157 16.6967 61.2423 16.49C61.4757 16.2833 61.5923 15.98 61.5923 15.58V15C61.1457 15.3533 60.6357 15.53 60.0623 15.53C59.5957 15.53 59.1657 15.4167 58.7723 15.19C58.3857 14.9567 58.079 14.6433 57.8523 14.25C57.6257 13.85 57.5123 13.41 57.5123 12.93C57.5123 12.4433 57.6257 12.0033 57.8523 11.61C58.0857 11.21 58.3957 10.8967 58.7823 10.67C59.1757 10.4367 59.6157 10.32 60.1023 10.32C60.3757 10.32 60.639 10.3667 60.8923 10.46C61.1523 10.5467 61.389 10.6733 61.6023 10.84V10.41H62.5923V15.58C62.5923 16.24 62.389 16.7467 61.9823 17.1C61.5823 17.46 61.009 17.64 60.2623 17.64ZM60.1923 14.67C60.4857 14.67 60.7523 14.62 60.9923 14.52C61.2323 14.4133 61.4323 14.2633 61.5923 14.07V11.79C61.4323 11.6033 61.229 11.4567 60.9823 11.35C60.7423 11.2433 60.479 11.19 60.1923 11.19C59.8723 11.19 59.5823 11.2667 59.3223 11.42C59.069 11.5733 58.8657 11.7833 58.7123 12.05C58.5657 12.31 58.4923 12.6033 58.4923 12.93C58.4923 13.2567 58.5657 13.5533 58.7123 13.82C58.8657 14.08 59.069 14.2867 59.3223 14.44C59.5823 14.5933 59.8723 14.67 60.1923 14.67ZM66.2077 15.59C65.7077 15.59 65.2544 15.4733 64.8477 15.24C64.4477 15.0067 64.1277 14.69 63.8877 14.29C63.6544 13.89 63.5377 13.4433 63.5377 12.95C63.5377 12.4633 63.6511 12.0233 63.8777 11.63C64.1044 11.23 64.4111 10.9133 64.7977 10.68C65.1844 10.44 65.6144 10.32 66.0877 10.32C66.5611 10.32 66.9811 10.44 67.3477 10.68C67.7144 10.9133 68.0044 11.2333 68.2177 11.64C68.4377 12.04 68.5477 12.4933 68.5477 13V13.28H64.5377C64.5911 13.56 64.6944 13.81 64.8477 14.03C65.0077 14.25 65.2077 14.4233 65.4477 14.55C65.6944 14.6767 65.9611 14.74 66.2477 14.74C66.4944 14.74 66.7311 14.7033 66.9577 14.63C67.1911 14.55 67.3844 14.4367 67.5377 14.29L68.1777 14.92C67.8777 15.1467 67.5677 15.3167 67.2477 15.43C66.9344 15.5367 66.5877 15.59 66.2077 15.59ZM64.5477 12.53H67.5577C67.5177 12.2633 67.4244 12.03 67.2777 11.83C67.1377 11.6233 66.9611 11.4633 66.7477 11.35C66.5411 11.23 66.3144 11.17 66.0677 11.17C65.8144 11.17 65.5811 11.2267 65.3677 11.34C65.1544 11.4533 64.9744 11.6133 64.8277 11.82C64.6877 12.02 64.5944 12.2567 64.5477 12.53Z" fill="#050505"/>
</g>
<defs>
<filter id="filter0_i_633_74332" x="0" y="0" width="78" height="26" filterUnits="userSpaceOnUse" color-interpolation-filters="sRGB">
<feFlood flood-opacity="0" result="BackgroundImageFix"/>
<feBlend mode="normal" in="SourceGraphic" in2="BackgroundImageFix" result="shape"/>
<feColorMatrix in="SourceAlpha" type="matrix" values="0 0 0 0 0 0 0 0 0 0 0 0 0 0 0 0 0 0 127 0" result="hardAlpha"/>
<feOffset dx="1" dy="2"/>
<feGaussianBlur stdDeviation="2"/>
<feComposite in2="hardAlpha" operator="arithmetic" k2="-1" k3="1"/>
<feColorMatrix type="matrix" values="0 0 0 0 0 0 0 0 0 0 0 0 0 0 0 0 0 0 0.15 0"/>
<feBlend mode="normal" in2="shape" result="effect1_innerShadow_633_74332"/>
</filter>
<clipPath id="clip0_633_74332">
<rect width="16" height="16" fill="white" transform="translate(8 4)"/>
</clipPath>
</defs>
</svg>
