<svg width="16" height="16" viewBox="0 0 16 16" fill="none" xmlns="http://www.w3.org/2000/svg">
<path d="M7.49976 1.33398C4.68755 1.33673 3.2325 1.38704 2.3094 2.31014C1.3863 3.23324 1.33599 4.68828 1.33325 7.50049H4.60893C4.37495 7.20823 4.20012 6.86349 4.10479 6.48217C3.74596 5.04683 5.04609 3.74669 6.48144 4.10552C6.86276 4.20085 7.2075 4.37568 7.49976 4.60966V1.33398Z" fill="url(#paint0_linear_633_74172)"/>
<path d="M1.33325 8.50049C1.33599 11.3127 1.3863 12.7677 2.3094 13.6908C3.2325 14.614 4.68755 14.6643 7.49976 14.667V9.41626C6.98 10.4544 5.90645 11.1672 4.66643 11.1672C4.39029 11.1672 4.16643 10.9433 4.16643 10.6672C4.16643 10.391 4.39029 10.1672 4.66643 10.1672C5.69095 10.1672 6.5494 9.45606 6.77512 8.50049H1.33325Z" fill="url(#paint1_linear_633_74172)"/>
<path d="M8.49976 14.667C11.312 14.6643 12.767 14.614 13.6901 13.6908C14.6132 12.7677 14.6635 11.3127 14.6663 8.50049H9.2244C9.45013 9.45606 10.3086 10.1672 11.3331 10.1672C11.6092 10.1672 11.8331 10.391 11.8331 10.6672C11.8331 10.9433 11.6092 11.1672 11.3331 11.1672C10.0931 11.1672 9.01952 10.4544 8.49976 9.41626V14.667Z" fill="url(#paint2_linear_633_74172)"/>
<path d="M14.6663 7.50049C14.6635 4.68828 14.6132 3.23324 13.6901 2.31014C12.767 1.38704 11.312 1.33673 8.49976 1.33398V4.60966C8.79203 4.37568 9.13676 4.20085 9.51808 4.10552C10.9534 3.74669 12.2536 5.04683 11.8947 6.48217C11.7994 6.86349 11.6246 7.20823 11.3906 7.50049H14.6663Z" fill="url(#paint3_linear_633_74172)"/>
<path d="M6.2389 5.07567C6.97992 5.26092 7.49976 5.92672 7.49976 6.69055V7.50049H6.68981C5.92599 7.50049 5.26019 6.98065 5.07493 6.23963C4.89919 5.53667 5.53594 4.89993 6.2389 5.07567Z" fill="url(#paint4_linear_633_74172)"/>
<path d="M8.49976 6.69055V7.50049H9.30971C10.0735 7.50049 10.7393 6.98065 10.9246 6.23963C11.1003 5.53667 10.4636 4.89993 9.76062 5.07567C9.0196 5.26092 8.49976 5.92672 8.49976 6.69055Z" fill="url(#paint5_linear_633_74172)"/>
<defs>
<linearGradient id="paint0_linear_633_74172" x1="1.33325" y1="8.00049" x2="14.6663" y2="8.00049" gradientUnits="userSpaceOnUse">
<stop stop-color="#982214"/>
<stop offset="1" stop-color="#F8CB48"/>
</linearGradient>
<linearGradient id="paint1_linear_633_74172" x1="1.33325" y1="8.00049" x2="14.6663" y2="8.00049" gradientUnits="userSpaceOnUse">
<stop stop-color="#982214"/>
<stop offset="1" stop-color="#F8CB48"/>
</linearGradient>
<linearGradient id="paint2_linear_633_74172" x1="1.33325" y1="8.00049" x2="14.6663" y2="8.00049" gradientUnits="userSpaceOnUse">
<stop stop-color="#982214"/>
<stop offset="1" stop-color="#F8CB48"/>
</linearGradient>
<linearGradient id="paint3_linear_633_74172" x1="1.33325" y1="8.00049" x2="14.6663" y2="8.00049" gradientUnits="userSpaceOnUse">
<stop stop-color="#982214"/>
<stop offset="1" stop-color="#F8CB48"/>
</linearGradient>
<linearGradient id="paint4_linear_633_74172" x1="1.33325" y1="8.00049" x2="14.6663" y2="8.00049" gradientUnits="userSpaceOnUse">
<stop stop-color="#982214"/>
<stop offset="1" stop-color="#F8CB48"/>
</linearGradient>
<linearGradient id="paint5_linear_633_74172" x1="1.33325" y1="8.00049" x2="14.6663" y2="8.00049" gradientUnits="userSpaceOnUse">
<stop stop-color="#982214"/>
<stop offset="1" stop-color="#F8CB48"/>
</linearGradient>
</defs>
</svg>
