<svg width="14" height="15" viewBox="0 0 14 15" fill="none" xmlns="http://www.w3.org/2000/svg">
<path fillrule="evenodd" cliprule="evenodd" d="M4.5001 4.01058C4.50003 4.00728 4.5 4.00397 4.5 4.00065V3.33398C4.5 1.95327 5.61929 0.833984 7 0.833984C8.38071 0.833984 9.5 1.95327 9.5 3.33398V4.00065C9.5 4.00397 9.49997 4.00728 9.4999 4.01058C10.3581 4.03634 10.8832 4.12892 11.2841 4.46163C11.8395 4.92262 11.9858 5.70291 12.2784 7.2635L12.7784 9.93016C13.1899 12.1246 13.3956 13.2219 12.7958 13.9446C12.196 14.6673 11.0797 14.6673 8.84695 14.6673H5.15303C2.92032 14.6673 1.80397 14.6673 1.20416 13.9446C0.604346 13.2219 0.810077 12.1246 1.22154 9.93016L1.72154 7.2635C2.01415 5.70291 2.16045 4.92262 2.7159 4.46163C3.11681 4.12891 3.64192 4.03634 4.5001 4.01058ZM5.5 3.33398C5.5 2.50556 6.17157 1.83398 7 1.83398C7.82843 1.83398 8.5 2.50556 8.5 3.33398V4.00065C8.5 4.00065 8.5 4.00066 8.5 4.00065C8.44982 4.00063 8.39881 4.00065 8.34695 4.00065H5.65303C5.60118 4.00065 5.55018 4.00065 5.5 4.00067C5.5 4.00066 5.5 4.00067 5.5 4.00067V3.33398ZM4.99999 8.79847C4.99999 9.45475 5.77656 10.1482 6.3619 10.5777C6.64173 10.783 6.78165 10.8857 6.99999 10.8857C7.21833 10.8857 7.35825 10.783 7.63808 10.5777C8.22342 10.1482 8.99999 9.45476 8.99999 8.79846C8.99999 7.68298 7.89996 7.26651 6.99999 8.12822C6.10002 7.26651 4.99999 7.68298 4.99999 8.79847Z" fill="url(#paint0_linear_2326_47177)"/>
<defs>
<linearGradient id="paint0_linear_2326_47177" x1="0.829102" y1="7.75065" x2="13.1709" y2="7.75065" gradientUnits="userSpaceOnUse">
<stop stop-color="#982214"/>
<stop offset="1" stop-color="#F8CB48"/>
</linearGradient>
</defs>
</svg>
