<svg width="16" height="16" viewBox="0 0 16 16" fill="none" xmlns="http://www.w3.org/2000/svg">
<g clip-path="url(#clip0_1550_10094)">
<path fillrule="evenodd" cliprule="evenodd" d="M5.49967 5.9987C5.49967 4.61799 6.61896 3.4987 7.99967 3.4987C9.38039 3.4987 10.4997 4.61799 10.4997 5.9987C10.4997 7.37941 9.38039 8.4987 7.99967 8.4987C6.61896 8.4987 5.49967 7.37941 5.49967 5.9987ZM7.99967 4.4987C7.17125 4.4987 6.49967 5.17027 6.49967 5.9987C6.49967 6.82713 7.17125 7.4987 7.99967 7.4987C8.8281 7.4987 9.49967 6.82713 9.49967 5.9987C9.49967 5.17027 8.8281 4.4987 7.99967 4.4987Z" fill="#828DA9"/>
<path fillrule="evenodd" cliprule="evenodd" d="M0.833008 7.9987C0.833008 4.04066 4.04163 0.832031 7.99967 0.832031C11.9577 0.832031 15.1663 4.04066 15.1663 7.9987C15.1663 11.9567 11.9577 15.1654 7.99967 15.1654C4.04163 15.1654 0.833008 11.9567 0.833008 7.9987ZM7.99967 1.83203C4.59392 1.83203 1.83301 4.59294 1.83301 7.9987C1.83301 9.69575 2.51852 11.2327 3.62774 12.3477C3.74801 11.699 3.9843 11.0873 4.45859 10.5954C5.16802 9.8597 6.30245 9.4987 7.99964 9.4987C9.69683 9.4987 10.8313 9.8597 11.5407 10.5954C12.015 11.0873 12.2513 11.699 12.3715 12.3478C13.4808 11.2327 14.1663 9.69578 14.1663 7.9987C14.1663 4.59294 11.4054 1.83203 7.99967 1.83203ZM11.4621 13.1023C11.3942 12.2943 11.2188 11.7022 10.8208 11.2896C10.3879 10.8405 9.58561 10.4987 7.99964 10.4987C6.41367 10.4987 5.61142 10.8405 5.17844 11.2896C4.78052 11.7022 4.60508 12.2943 4.53716 13.1023C5.52424 13.7732 6.71616 14.1654 7.99967 14.1654C9.28316 14.1654 10.4751 13.7733 11.4621 13.1023Z" fill="#828DA9"/>
</g>
<defs>
<clipPath id="clip0_1550_10094">
<rect width="16" height="16" fill="white"/>
</clipPath>
</defs>
</svg>
