<svg width="24" height="24" viewBox="0 0 24 24" fill="none" xmlns="http://www.w3.org/2000/svg">
<path d="M12 11.5977C13.3807 11.5977 14.5 10.4784 14.5 9.09766C14.5 7.71694 13.3807 6.59766 12 6.59766C10.6193 6.59766 9.5 7.71694 9.5 9.09766C9.5 10.4784 10.6193 11.5977 12 11.5977Z" stroke="#DADFF8" stroke-width="1.5" stroke-linecap="round" stroke-linejoin="round"/>
<path d="M7.0459 18.7038C7.8019 13.1768 16.1979 13.1768 16.9539 18.7038" stroke="#DADFF8" stroke-width="1.5" stroke-linecap="round" stroke-linejoin="round"/>
<path d="M20.5 15.7992V8.19919C20.4995 7.86653 20.4122 7.53976 20.2466 7.25124C20.081 6.96271 19.843 6.72243 19.556 6.55419L12.944 2.75419C12.6573 2.58769 12.3316 2.5 12 2.5C11.6684 2.5 11.3427 2.58769 11.056 2.75419L4.444 6.55419C4.15635 6.72167 3.91774 6.96178 3.75207 7.25048C3.58639 7.53917 3.49947 7.86633 3.5 8.19919V15.8012C3.50065 16.1337 3.58808 16.4602 3.75364 16.7486C3.91921 17.0369 4.15717 17.277 4.444 17.4452L11.056 21.2452C11.3427 21.4117 11.6684 21.4994 12 21.4994C12.3316 21.4994 12.6573 21.4117 12.944 21.2452L19.556 17.4452C19.8438 17.2776 20.0825 17.0374 20.2482 16.7485C20.4139 16.4596 20.5007 16.1322 20.5 15.7992Z" stroke="#DADFF8" stroke-width="1.5" stroke-linecap="round" stroke-linejoin="round"/>
</svg>
