<svg width="16" height="16" viewBox="0 0 16 16" fill="none" xmlns="http://www.w3.org/2000/svg">
<g filter="url(#filter0_i_1338_3598)">
<rect width="16" height="16" rx="8" fill="white"/>
<rect x="0.1" y="0.1" width="15.8" height="15.8" rx="7.9" stroke="#E0E0E0" stroke-width="0.2"/>
<g clip-path="url(#clip0_1338_3598)">
<path fillrule="evenodd" cliprule="evenodd" d="M7.79183 4.146C5.77829 4.146 4.146 5.77829 4.146 7.79183C4.146 9.80537 5.77829 11.4377 7.79183 11.4377C9.80537 11.4377 11.4377 9.80537 11.4377 7.79183C11.4377 5.77829 9.80537 4.146 7.79183 4.146ZM3.521 7.79183C3.521 5.43311 5.43311 3.521 7.79183 3.521C10.1505 3.521 12.0627 5.43311 12.0627 7.79183C12.0627 10.1505 10.1505 12.0627 7.79183 12.0627C5.43311 12.0627 3.521 10.1505 3.521 7.79183ZM11.1125 11.1125C11.2346 10.9905 11.4324 10.9905 11.5545 11.1125L12.3878 11.9459C12.5098 12.0679 12.5098 12.2658 12.3878 12.3878C12.2658 12.5098 12.0679 12.5098 11.9459 12.3878L11.1125 11.5545C10.9905 11.4324 10.9905 11.2346 11.1125 11.1125Z" fill="#828DA9"/>
</g>
</g>
<defs>
<filter id="filter0_i_1338_3598" x="0" y="0" width="17" height="18" filterUnits="userSpaceOnUse" color-interpolation-filters="sRGB">
<feFlood flood-opacity="0" result="BackgroundImageFix"/>
<feBlend mode="normal" in="SourceGraphic" in2="BackgroundImageFix" result="shape"/>
<feColorMatrix in="SourceAlpha" type="matrix" values="0 0 0 0 0 0 0 0 0 0 0 0 0 0 0 0 0 0 127 0" result="hardAlpha"/>
<feOffset dx="1" dy="2"/>
<feGaussianBlur stdDeviation="2"/>
<feComposite in2="hardAlpha" operator="arithmetic" k2="-1" k3="1"/>
<feColorMatrix type="matrix" values="0 0 0 0 0 0 0 0 0 0 0 0 0 0 0 0 0 0 0.15 0"/>
<feBlend mode="normal" in2="shape" result="effect1_innerShadow_1338_3598"/>
</filter>
<clipPath id="clip0_1338_3598">
<rect width="10" height="10" fill="white" transform="translate(3 3)"/>
</clipPath>
</defs>
</svg>
