<svg width="32" height="24" viewBox="0 0 32 24" fill="none" xmlns="http://www.w3.org/2000/svg">
<g filter="url(#filter0_i_633_74333)">
<rect width="32" height="24" rx="12" fill="white"/>
<rect x="0.1" y="0.1" width="31.8" height="23.8" rx="11.9" stroke="#E0E0E0" stroke-width="0.2"/>
<path d="M12.6667 11.9993C12.6667 12.7357 12.0697 13.3327 11.3333 13.3327C10.597 13.3327 10 12.7357 10 11.9993C10 11.263 10.597 10.666 11.3333 10.666C12.0697 10.666 12.6667 11.263 12.6667 11.9993Z" fill="#828DA9"/>
<path d="M17.3333 11.9993C17.3333 12.7357 16.7364 13.3327 16 13.3327C15.2636 13.3327 14.6667 12.7357 14.6667 11.9993C14.6667 11.263 15.2636 10.666 16 10.666C16.7364 10.666 17.3333 11.263 17.3333 11.9993Z" fill="#828DA9"/>
<path d="M22 11.9993C22 12.7357 21.403 13.3327 20.6667 13.3327C19.9303 13.3327 19.3333 12.7357 19.3333 11.9993C19.3333 11.263 19.9303 10.666 20.6667 10.666C21.403 10.666 22 11.263 22 11.9993Z" fill="#828DA9"/>
</g>
<defs>
<filter id="filter0_i_633_74333" x="0" y="0" width="33" height="26" filterUnits="userSpaceOnUse" color-interpolation-filters="sRGB">
<feFlood flood-opacity="0" result="BackgroundImageFix"/>
<feBlend mode="normal" in="SourceGraphic" in2="BackgroundImageFix" result="shape"/>
<feColorMatrix in="SourceAlpha" type="matrix" values="0 0 0 0 0 0 0 0 0 0 0 0 0 0 0 0 0 0 127 0" result="hardAlpha"/>
<feOffset dx="1" dy="2"/>
<feGaussianBlur stdDeviation="2"/>
<feComposite in2="hardAlpha" operator="arithmetic" k2="-1" k3="1"/>
<feColorMatrix type="matrix" values="0 0 0 0 0 0 0 0 0 0 0 0 0 0 0 0 0 0 0.15 0"/>
<feBlend mode="normal" in2="shape" result="effect1_innerShadow_633_74333"/>
</filter>
</defs>
</svg>
