<svg width="16" height="16" viewBox="0 0 16 16" fill="none" xmlns="http://www.w3.org/2000/svg">
<path fillrule="evenodd" cliprule="evenodd" d="M6.62922 2.1665H9.37111C10.5963 2.16649 11.5667 2.16649 12.3262 2.26859C13.1078 2.37368 13.7404 2.59509 14.2393 3.094C14.7382 3.59291 14.9597 4.22554 15.0647 5.00716C15.125 5.45573 15.1497 5.9779 15.1598 6.58269C15.1644 6.60994 15.1668 6.63794 15.1668 6.6665C15.1668 6.69001 15.1652 6.71313 15.1621 6.73577C15.1668 7.11292 15.1668 7.52106 15.1668 7.96223V7.99984C15.1668 8.27598 14.943 8.49984 14.6668 8.49984C14.3907 8.49984 14.1668 8.27598 14.1668 7.99984C14.1668 7.70257 14.1668 7.42543 14.1655 7.1665H1.83482C1.83355 7.42543 1.8335 7.70257 1.8335 7.99984C1.8335 9.27105 1.83456 10.1742 1.92667 10.8593C2.01685 11.53 2.18596 11.9164 2.4681 12.1986C2.75024 12.4807 3.13667 12.6498 3.8074 12.74C4.4925 12.8321 5.39562 12.8332 6.66683 12.8332H9.3335C9.60964 12.8332 9.8335 13.057 9.8335 13.3332C9.8335 13.6093 9.60964 13.8332 9.3335 13.8332H6.62922C5.40405 13.8332 4.43362 13.8332 3.67415 13.7311C2.89253 13.626 2.2599 13.4046 1.76099 12.9057C1.26208 12.4068 1.04067 11.7741 0.935586 10.9925C0.833477 10.233 0.833486 9.26262 0.833496 8.03745V7.96223C0.833492 7.52105 0.833489 7.11291 0.838254 6.73576C0.835117 6.71312 0.833497 6.69 0.833497 6.6665C0.833497 6.63795 0.835891 6.60995 0.840489 6.5827C0.850591 5.97791 0.875276 5.45574 0.935586 5.00716C1.04067 4.22554 1.26208 3.59291 1.76099 3.094C2.2599 2.59509 2.89253 2.37368 3.67415 2.26859C4.43362 2.16649 5.40405 2.16649 6.62922 2.1665ZM1.85088 6.1665H14.1494C14.1364 5.77535 14.1136 5.43739 14.0737 5.1404C13.9835 4.46968 13.8144 4.08325 13.5322 3.80111C13.2501 3.51897 12.8637 3.34985 12.1929 3.25968C11.5078 3.16757 10.6047 3.1665 9.3335 3.1665H6.66683C5.39562 3.1665 4.49251 3.16757 3.8074 3.25968C3.13667 3.34985 2.75024 3.51897 2.4681 3.80111C2.18596 4.08325 2.01685 4.46968 1.92667 5.1404C1.88674 5.43739 1.86392 5.77535 1.85088 6.1665ZM12.6668 8.83317C12.943 8.83317 13.1668 9.05703 13.1668 9.33317V12.1261L13.6466 11.6463C13.8419 11.451 14.1585 11.451 14.3537 11.6463C14.549 11.8415 14.549 12.1581 14.3537 12.3534L13.0204 13.6867C12.8251 13.882 12.5085 13.882 12.3133 13.6867L10.9799 12.3534C10.7847 12.1581 10.7847 11.8415 10.9799 11.6463C11.1752 11.451 11.4918 11.451 11.687 11.6463L12.1668 12.1261V9.33317C12.1668 9.05703 12.3907 8.83317 12.6668 8.83317ZM3.50016 10.6665C3.50016 10.3904 3.72402 10.1665 4.00016 10.1665H6.66683C6.94297 10.1665 7.16683 10.3904 7.16683 10.6665C7.16683 10.9426 6.94297 11.1665 6.66683 11.1665H4.00016C3.72402 11.1665 3.50016 10.9426 3.50016 10.6665ZM7.8335 10.6665C7.8335 10.3904 8.05735 10.1665 8.3335 10.1665H8.66683C8.94297 10.1665 9.16683 10.3904 9.16683 10.6665C9.16683 10.9426 8.94297 11.1665 8.66683 11.1665H8.3335C8.05735 11.1665 7.8335 10.9426 7.8335 10.6665Z" fill="#828DA9"/>
</svg>
