<svg width="18" height="18" viewBox="0 0 18 18" fill="none" xmlns="http://www.w3.org/2000/svg">
<path d="M8.37464 0.666016C4.85938 0.669443 3.04057 0.732331 1.88669 1.88621C0.732819 3.04008 0.669931 4.85889 0.666504 8.37415H4.7611C4.46863 8.00882 4.25009 7.5779 4.13093 7.10125C3.68238 5.30707 5.30756 3.6819 7.10174 4.13044C7.57839 4.2496 8.00931 4.46814 8.37464 4.76061V0.666016Z" fill="url(#paint0_linear_1105_29995)"/>
<path d="M0.666504 9.62415C0.669931 13.1394 0.732819 14.9582 1.88669 16.1121C3.04057 17.266 4.85938 17.3289 8.37464 17.3323V10.7689C7.72494 12.0666 6.383 12.9575 4.83297 12.9575C4.4878 12.9575 4.20797 12.6777 4.20797 12.3325C4.20797 11.9873 4.4878 11.7075 4.83297 11.7075C6.11363 11.7075 7.18668 10.8186 7.46884 9.62415H0.666504Z" fill="url(#paint1_linear_1105_29995)"/>
<path d="M9.62464 17.3323C13.1399 17.3289 14.9587 17.266 16.1126 16.1121C17.2665 14.9582 17.3293 13.1394 17.3328 9.62415H10.5304C10.8126 10.8186 11.8856 11.7075 13.1663 11.7075C13.5115 11.7075 13.7913 11.9873 13.7913 12.3325C13.7913 12.6777 13.5115 12.9575 13.1663 12.9575C11.6163 12.9575 10.2743 12.0666 9.62464 10.7689V17.3323Z" fill="url(#paint2_linear_1105_29995)"/>
<path d="M17.3328 8.37415C17.3293 4.85889 17.2665 3.04008 16.1126 1.88621C14.9587 0.732331 13.1399 0.669443 9.62464 0.666016V4.76061C9.98997 4.46814 10.4209 4.2496 10.8975 4.13044C12.6917 3.6819 14.3169 5.30707 13.8684 7.10125C13.7492 7.5779 13.5307 8.00882 13.2382 8.37415H17.3328Z" fill="url(#paint3_linear_1105_29995)"/>
<path d="M6.79857 5.34312C7.72484 5.57469 8.37464 6.40694 8.37464 7.36172V8.37415H7.36221C6.40743 8.37415 5.57517 7.72435 5.34361 6.79808C5.12393 5.91937 5.91986 5.12344 6.79857 5.34312Z" fill="url(#paint4_linear_1105_29995)"/>
<path d="M9.62464 7.36172V8.37415H10.6371C11.5919 8.37415 12.4241 7.72435 12.6557 6.79808C12.8753 5.91937 12.0794 5.12344 11.2007 5.34312C10.2744 5.57469 9.62464 6.40694 9.62464 7.36172Z" fill="url(#paint5_linear_1105_29995)"/>
<defs>
<linearGradient id="paint0_linear_1105_29995" x1="0.666504" y1="8.99915" x2="17.3328" y2="8.99915" gradientUnits="userSpaceOnUse">
<stop stop-color="#982214"/>
<stop offset="1" stop-color="#F8CB48"/>
</linearGradient>
<linearGradient id="paint1_linear_1105_29995" x1="0.666504" y1="8.99915" x2="17.3328" y2="8.99915" gradientUnits="userSpaceOnUse">
<stop stop-color="#982214"/>
<stop offset="1" stop-color="#F8CB48"/>
</linearGradient>
<linearGradient id="paint2_linear_1105_29995" x1="0.666504" y1="8.99915" x2="17.3328" y2="8.99915" gradientUnits="userSpaceOnUse">
<stop stop-color="#982214"/>
<stop offset="1" stop-color="#F8CB48"/>
</linearGradient>
<linearGradient id="paint3_linear_1105_29995" x1="0.666504" y1="8.99915" x2="17.3328" y2="8.99915" gradientUnits="userSpaceOnUse">
<stop stop-color="#982214"/>
<stop offset="1" stop-color="#F8CB48"/>
</linearGradient>
<linearGradient id="paint4_linear_1105_29995" x1="0.666504" y1="8.99915" x2="17.3328" y2="8.99915" gradientUnits="userSpaceOnUse">
<stop stop-color="#982214"/>
<stop offset="1" stop-color="#F8CB48"/>
</linearGradient>
<linearGradient id="paint5_linear_1105_29995" x1="0.666504" y1="8.99915" x2="17.3328" y2="8.99915" gradientUnits="userSpaceOnUse">
<stop stop-color="#982214"/>
<stop offset="1" stop-color="#F8CB48"/>
</linearGradient>
</defs>
</svg>
