<svg width="16" height="18" viewBox="0 0 16 18" fill="none" xmlns="http://www.w3.org/2000/svg">
<path fillrule="evenodd" cliprule="evenodd" d="M4.87488 4.01176C4.8748 4.00763 4.87476 4.0035 4.87476 3.99935V3.16602C4.87476 1.44013 6.27387 0.0410156 7.99976 0.0410156C9.72565 0.0410156 11.1248 1.44013 11.1248 3.16602V3.99935C11.1248 4.0035 11.1247 4.00763 11.1246 4.01176C12.1973 4.04396 12.8537 4.15968 13.3548 4.57558C14.0492 5.1518 14.232 6.12717 14.5978 8.07791L15.2228 11.4112C15.7371 14.1543 15.9943 15.5259 15.2445 16.4293C14.4948 17.3327 13.0993 17.3327 10.3084 17.3327H5.69104C2.90016 17.3327 1.50472 17.3327 0.754952 16.4293C0.00518796 15.5259 0.262352 14.1543 0.776679 11.4112L1.40168 8.07791C1.76744 6.12717 1.95032 5.1518 2.64464 4.57558C3.14576 4.15968 3.80216 4.04396 4.87488 4.01176ZM6.12476 3.16602C6.12476 2.13048 6.96422 1.29102 7.99976 1.29102C9.03529 1.29102 9.87476 2.13048 9.87476 3.16602V3.99935C9.87476 3.99934 9.87476 3.99936 9.87476 3.99935C9.81203 3.99933 9.74827 3.99935 9.68344 3.99935H6.31604C6.25123 3.99935 6.18748 3.99935 6.12476 3.99937C6.12476 3.99936 6.12476 3.99938 6.12476 3.99937V3.16602ZM5.49974 9.99662C5.49974 10.817 6.47045 11.6838 7.20213 12.2207C7.55192 12.4773 7.72682 12.6056 7.99974 12.6056C8.27267 12.6056 8.44757 12.4773 8.79736 12.2207C9.52903 11.6838 10.4997 10.817 10.4997 9.99661C10.4997 8.60226 9.1247 8.08168 7.99974 9.1588C6.87478 8.08168 5.49974 8.60226 5.49974 9.99662Z" fill="url(#paint0_linear_2396_104169)"/>
<defs>
<linearGradient id="paint0_linear_2396_104169" x1="0.286133" y1="8.68685" x2="15.7134" y2="8.68685" gradientUnits="userSpaceOnUse">
<stop stop-color="#982214"/>
<stop offset="1" stop-color="#F8CB48"/>
</linearGradient>
</defs>
</svg>
