<svg width="16" height="16" viewBox="0 0 16 16" fill="none" xmlns="http://www.w3.org/2000/svg">
<g clip-path="url(#clip0_208_24389)">
<circle cx="6.66667" cy="4.00016" r="2.66667" stroke="#9BA4BA" stroke-width="1.5"/>
<path d="M12.0289 8.24388L12.4726 7.63919L12.4726 7.63919L12.0289 8.24388ZM12.667 5.79439L12.1483 6.33612C12.4383 6.61382 12.8956 6.61382 13.1857 6.33612L12.667 5.79439ZM13.3051 8.24388L12.8614 7.63919L12.8614 7.63919L13.3051 8.24388ZM12.667 8.55187L12.667 9.30187H12.667L12.667 8.55187ZM12.4726 7.63919C12.2009 7.43989 11.9107 7.19729 11.6957 6.94871C11.4611 6.67747 11.417 6.51516 11.417 6.46465H9.91699C9.91699 7.07042 10.2611 7.58299 10.5612 7.92992C10.8808 8.29951 11.2715 8.61839 11.5852 8.84857L12.4726 7.63919ZM11.417 6.46465C11.417 6.30946 11.4546 6.21919 11.484 6.17348C11.5122 6.12952 11.5441 6.1076 11.5776 6.09585C11.6342 6.07602 11.8477 6.04833 12.1483 6.33612L13.1857 5.25267C12.5863 4.67875 11.7998 4.42845 11.0814 4.6803C10.3419 4.93952 9.91699 5.64634 9.91699 6.46465H11.417ZM13.7488 8.84857C14.0625 8.6184 14.4532 8.29952 14.7728 7.92992C15.0729 7.58299 15.417 7.07042 15.417 6.46464H13.917C13.917 6.51516 13.8728 6.67748 13.6383 6.94872C13.4233 7.19729 13.133 7.43989 12.8614 7.63919L13.7488 8.84857ZM15.417 6.46464C15.417 5.64633 14.992 4.93952 14.2526 4.6803C13.5341 4.42845 12.7477 4.67875 12.1483 5.25267L13.1857 6.33612C13.4862 6.04833 13.6998 6.07602 13.7564 6.09585C13.7899 6.1076 13.8218 6.12952 13.85 6.17348C13.8794 6.21918 13.917 6.30946 13.917 6.46464H15.417ZM11.5852 8.84857C11.8139 9.01638 12.1578 9.30187 12.667 9.30187L12.667 7.80187C12.6736 7.80187 12.6891 7.80296 12.7075 7.80787C12.7246 7.81242 12.7307 7.81668 12.7211 7.81159C12.7091 7.80526 12.6856 7.7914 12.6415 7.76101C12.5966 7.73012 12.5451 7.69239 12.4726 7.63919L11.5852 8.84857ZM12.8614 7.63919C12.7889 7.69239 12.7374 7.73012 12.6925 7.76101C12.6484 7.7914 12.6249 7.80526 12.6129 7.81159C12.6032 7.81668 12.6094 7.81242 12.6265 7.80787C12.6449 7.80296 12.6603 7.80187 12.667 7.80187L12.667 9.30187C13.1762 9.30187 13.5201 9.01639 13.7488 8.84857L12.8614 7.63919Z" fill="#9BA4BA"/>
<path d="M11.998 11.9998C11.9997 11.8904 11.9997 11.7792 11.9997 11.6665C11.9997 10.0096 9.61186 8.6665 6.66634 8.6665C3.72082 8.6665 1.33301 10.0096 1.33301 11.6665C1.33301 13.3234 1.33301 14.6665 6.66634 14.6665C8.15368 14.6665 9.22623 14.562 9.99967 14.3755" stroke="#9BA4BA" stroke-width="1.5" stroke-linecap="round"/>
</g>
<defs>
<clipPath id="clip0_208_24389">
<rect width="16" height="16" fill="white"/>
</clipPath>
</defs>
</svg>
