<svg width="20" height="20" viewBox="0 0 20 20" fill="none" xmlns="http://www.w3.org/2000/svg">
<path d="M13.3332 4.99984C13.3332 6.84079 11.8408 8.33317 9.99984 8.33317C8.15889 8.33317 6.6665 6.84079 6.6665 4.99984C6.6665 3.15889 8.15889 1.6665 9.99984 1.6665C11.8408 1.6665 13.3332 3.15889 13.3332 4.99984Z" fill="url(#paint0_linear_3709_13291)"/>
<path d="M13.0653 11.2525C12.6711 11.2573 12.3036 11.2716 11.9834 11.3147C11.4477 11.3867 10.8613 11.5589 10.3768 12.0434C9.89223 12.5279 9.72008 13.1143 9.64805 13.6501C9.58332 14.1315 9.58341 14.7197 9.5835 15.3452V15.4885C9.58341 16.1139 9.58332 16.7021 9.64805 17.1836C9.69859 17.5595 9.79844 17.9604 10.0209 18.3335C10.014 18.3335 10.0071 18.3335 10.0002 18.3335C3.3335 18.3335 3.3335 16.6546 3.3335 14.5835C3.3335 12.5124 6.31826 10.8335 10.0002 10.8335C11.1053 10.8335 12.1477 10.9848 13.0653 11.2525Z" fill="url(#paint1_linear_3709_13291)"/>
<path fill-rule="evenodd" clip-rule="evenodd" d="M11.2606 17.9062C11.6878 18.3333 12.3752 18.3333 13.7502 18.3333C15.1251 18.3333 15.8126 18.3333 16.2397 17.9062C16.6668 17.4791 16.6668 16.7916 16.6668 15.4167C16.6668 14.0417 16.6668 13.3543 16.2397 12.9271C15.8126 12.5 15.1251 12.5 13.7502 12.5C12.3752 12.5 11.6878 12.5 11.2606 12.9271C10.8335 13.3543 10.8335 14.0417 10.8335 15.4167C10.8335 16.7916 10.8335 17.4791 11.2606 17.9062ZM12.939 16.6471C12.354 16.2281 11.6668 15.7361 11.6668 14.8832C11.6668 13.9415 12.8127 13.2738 13.7502 14.179C14.6876 13.2738 15.8335 13.9415 15.8335 14.8832C15.8335 15.7361 15.1464 16.2281 14.5614 16.6471C14.5006 16.6906 14.4408 16.7333 14.3831 16.7756C14.1668 16.9341 13.9585 17.0833 13.7502 17.0833C13.5418 17.0833 13.3335 16.9341 13.1172 16.7756C13.0595 16.7333 12.9998 16.6906 12.939 16.6471Z" fill="url(#paint2_linear_3709_13291)"/>
<defs>
<linearGradient id="paint0_linear_3709_13291" x1="6.6665" y1="4.99984" x2="13.3332" y2="4.99984" gradientUnits="userSpaceOnUse">
<stop stop-color="#982214"/>
<stop offset="1" stop-color="#F8CB48"/>
</linearGradient>
<linearGradient id="paint1_linear_3709_13291" x1="3.3335" y1="14.5835" x2="13.0653" y2="14.5835" gradientUnits="userSpaceOnUse">
<stop stop-color="#982214"/>
<stop offset="1" stop-color="#F8CB48"/>
</linearGradient>
<linearGradient id="paint2_linear_3709_13291" x1="10.8335" y1="15.4167" x2="16.6668" y2="15.4167" gradientUnits="userSpaceOnUse">
<stop stop-color="#982214"/>
<stop offset="1" stop-color="#F8CB48"/>
</linearGradient>
</defs>
</svg>
