<svg width="20" height="20" viewBox="0 0 20 20" fill="none" xmlns="http://www.w3.org/2000/svg">
<path fill-rule="evenodd" clip-rule="evenodd" d="M6.87488 5.01225C6.8748 5.00812 6.87476 5.00398 6.87476 4.99984V4.1665C6.87476 2.44061 8.27387 1.0415 9.99976 1.0415C11.7256 1.0415 13.1248 2.44061 13.1248 4.1665V4.99984C13.1248 5.00398 13.1247 5.00812 13.1246 5.01225C14.1973 5.04445 14.8537 5.16017 15.3548 5.57606C16.0492 6.15229 16.232 7.12766 16.5978 9.07839L17.2228 12.4117C17.7371 15.1548 17.9943 16.5264 17.2445 17.4298C16.4948 18.3332 15.0993 18.3332 12.3084 18.3332H7.69104C4.90016 18.3332 3.50472 18.3332 2.75495 17.4298C2.00519 16.5264 2.26235 15.1548 2.77668 12.4117L3.40168 9.0784C3.76744 7.12766 3.95032 6.15229 4.64464 5.57606C5.14576 5.16017 5.80216 5.04445 6.87488 5.01225ZM8.12476 4.1665C8.12476 3.13097 8.96422 2.2915 9.99976 2.2915C11.0353 2.2915 11.8748 3.13097 11.8748 4.1665V4.99984C11.8748 4.99983 11.8748 4.99984 11.8748 4.99984C11.812 4.99982 11.7483 4.99984 11.6834 4.99984H8.31604C8.25123 4.99984 8.18748 4.99984 8.12476 4.99986C8.12476 4.99985 8.12476 4.99986 8.12476 4.99986V4.1665ZM7.49974 10.9971C7.49974 11.8175 8.47045 12.6843 9.20213 13.2211C9.55192 13.4778 9.72682 13.6061 9.99974 13.6061C10.2727 13.6061 10.4476 13.4778 10.7974 13.2212C11.529 12.6843 12.4997 11.8175 12.4997 10.9971C12.4997 9.60275 11.1247 9.08216 9.99974 10.1593C8.87478 9.08216 7.49974 9.60275 7.49974 10.9971Z" fill="#FC4C5D"/>
</svg>
