<svg width="16" height="16" viewBox="0 0 16 16" fill="none" xmlns="http://www.w3.org/2000/svg">
<path d="M8.6665 10.2673C8.6665 8.88453 8.6665 8.19314 9.10584 7.76356C9.54518 7.33398 10.2523 7.33398 11.6665 7.33398C13.0807 7.33398 13.7878 7.33398 14.2272 7.76356C14.6665 8.19314 14.6665 8.88453 14.6665 10.2673V11.734C14.6665 13.1168 14.6665 13.8082 14.2272 14.2377C13.7878 14.6673 13.0807 14.6673 11.6665 14.6673C10.2523 14.6673 9.54518 14.6673 9.10584 14.2377C8.6665 13.8082 8.6665 13.1168 8.6665 11.734V10.2673Z" fill="#63130C"/>
<path d="M1.3335 5.73398C1.3335 7.11677 1.3335 7.80816 1.77284 8.23774C2.21218 8.66732 2.91928 8.66732 4.3335 8.66732C5.74771 8.66732 6.45482 8.66732 6.89416 8.23774C7.3335 7.80816 7.3335 7.11677 7.3335 5.73398V4.26732C7.3335 2.88453 7.3335 2.19314 6.89416 1.76356C6.45482 1.33398 5.74771 1.33398 4.3335 1.33398C2.91928 1.33398 2.21218 1.33398 1.77284 1.76356C1.3335 2.19314 1.3335 2.88453 1.3335 4.26732V5.73398Z" fill="#63130C"/>
<path d="M8.6665 3.66732C8.6665 2.94252 8.6665 2.58012 8.78068 2.29425C8.93293 1.9131 9.22494 1.61027 9.59248 1.45239C9.86814 1.33398 10.2176 1.33398 10.9165 1.33398H12.4165C13.1154 1.33398 13.4649 1.33398 13.7405 1.45239C14.1081 1.61027 14.4001 1.9131 14.5523 2.29425C14.6665 2.58012 14.6665 2.94252 14.6665 3.66732C14.6665 4.39212 14.6665 4.75451 14.5523 5.04038C14.4001 5.42154 14.1081 5.72436 13.7405 5.88224C13.4649 6.00065 13.1154 6.00065 12.4165 6.00065H10.9165C10.2176 6.00065 9.86814 6.00065 9.59248 5.88224C9.22494 5.72436 8.93293 5.42154 8.78068 5.04038C8.6665 4.75451 8.6665 4.39212 8.6665 3.66732Z" fill="#63130C"/>
<path d="M1.3335 12.3333C1.3335 13.0581 1.3335 13.4205 1.44768 13.7064C1.59992 14.0876 1.89193 14.3904 2.25947 14.5483C2.53513 14.6667 2.88458 14.6667 3.5835 14.6667H5.0835C5.78241 14.6667 6.13186 14.6667 6.40752 14.5483C6.77506 14.3904 7.06707 14.0876 7.21932 13.7064C7.3335 13.4205 7.3335 13.0581 7.3335 12.3333C7.3335 11.6085 7.3335 11.2461 7.21932 10.9603C7.06707 10.5791 6.77506 10.2763 6.40752 10.1184C6.13186 10 5.78241 10 5.0835 10H3.5835C2.88458 10 2.53513 10 2.25947 10.1184C1.89193 10.2763 1.59992 10.5791 1.44768 10.9603C1.3335 11.2461 1.3335 11.6085 1.3335 12.3333Z" fill="#63130C"/>
</svg>
