<svg width="16" height="16" viewBox="0 0 16 16" fill="none" xmlns="http://www.w3.org/2000/svg">
<path d="M12.6663 9.33398V13.334M12.6663 13.334L13.9997 12.0007M12.6663 13.334L11.333 12.0007" stroke="#9BA4BA" stroke-width="1.5" stroke-linecap="round" stroke-linejoin="round"/>
<path d="M14.6663 7.99935C14.6663 5.48519 14.6663 4.22811 13.8853 3.44706C13.1042 2.66602 11.8472 2.66602 9.33301 2.66602M9.33301 13.3327H6.66634C4.15218 13.3327 2.89511 13.3327 2.11406 12.5516C1.33301 11.7706 1.33301 10.5135 1.33301 7.99935C1.33301 5.48519 1.33301 4.22811 2.11406 3.44706C2.89511 2.66602 4.15218 2.66602 6.66634 2.66602" stroke="#9BA4BA" stroke-width="1.5" stroke-linecap="round"/>
<path d="M6.66667 10.666H4" stroke="#9BA4BA" stroke-width="1.5" stroke-linecap="round"/>
<path d="M8.66634 10.666H8.33301" stroke="#828DA9" stroke-width="1.5" stroke-linecap="round"/>
<path d="M1.33301 6.66602L4.66634 6.66602M14.6663 6.66602L7.33301 6.66602" stroke="#828DA9" stroke-width="1.5" stroke-linecap="round"/>
</svg>
