<svg width="16" height="16" viewBox="0 0 16 16" fill="none" xmlns="http://www.w3.org/2000/svg">
<path d="M4.66667 8.0013C4.66667 8.73768 4.06971 9.33464 3.33333 9.33464C2.59695 9.33464 2 8.73768 2 8.0013C2 7.26492 2.59695 6.66797 3.33333 6.66797C4.06971 6.66797 4.66667 7.26492 4.66667 8.0013Z" fill="#828DA9"/>
<path d="M9.33333 8.0013C9.33333 8.73768 8.73638 9.33464 8 9.33464C7.26362 9.33464 6.66667 8.73768 6.66667 8.0013C6.66667 7.26492 7.26362 6.66797 8 6.66797C8.73638 6.66797 9.33333 7.26492 9.33333 8.0013Z" fill="#828DA9"/>
<path d="M14 8.0013C14 8.73768 13.403 9.33464 12.6667 9.33464C11.9303 9.33464 11.3333 8.73768 11.3333 8.0013C11.3333 7.26492 11.9303 6.66797 12.6667 6.66797C13.403 6.66797 14 7.26492 14 8.0013Z" fill="#828DA9"/>
</svg>
