<svg width="24" height="24" viewBox="0 0 24 24" fill="none" xmlns="http://www.w3.org/2000/svg">
<path fillrule="evenodd" cliprule="evenodd" d="M22.2955 6.31064C22.6762 6.47381 22.8526 6.91472 22.6894 7.29544L22 7C22.6894 7.29544 22.6895 7.29526 22.6894 7.29544L22.6887 7.29712L22.6876 7.29961L22.6844 7.30696L22.6738 7.33104C22.6648 7.35118 22.652 7.37939 22.6353 7.41508C22.6021 7.48643 22.5534 7.58775 22.4889 7.71416C22.3601 7.9668 22.1676 8.32068 21.9086 8.73647C21.483 9.41951 20.8725 10.2777 20.062 11.1302L21.0304 12.0985C21.3233 12.3914 21.3233 12.8663 21.0304 13.1592C20.7375 13.4521 20.2626 13.4521 19.9697 13.1592L18.9691 12.1586C18.3094 12.7113 17.5529 13.23 16.6951 13.6562L17.6287 15.091C17.8546 15.4381 17.7563 15.9027 17.4091 16.1286C17.0619 16.3545 16.5973 16.2562 16.3714 15.909L15.2822 14.2351C14.5029 14.4897 13.6591 14.6626 12.75 14.7246V16.5C12.75 16.9142 12.4143 17.25 12 17.25C11.5858 17.25 11.25 16.9142 11.25 16.5V14.7246C10.369 14.6645 9.54922 14.5002 8.78995 14.2584L7.71587 15.9091C7.48997 16.2563 7.02538 16.3546 6.67819 16.1287C6.33101 15.9028 6.23269 15.4382 6.4586 15.091L7.37101 13.6888C6.50663 13.2667 5.74394 12.7502 5.07854 12.1983L4.11756 13.1592C3.82467 13.4521 3.3498 13.4521 3.0569 13.1592C2.76401 12.8663 2.76401 12.3915 3.0569 12.0986L3.98067 11.1748C3.15611 10.3151 2.53537 9.44656 2.10289 8.75467C1.83997 8.33404 1.64472 7.97565 1.514 7.71969C1.4486 7.59163 1.39923 7.48895 1.36549 7.41664C1.34862 7.38048 1.33565 7.35188 1.32654 7.33148L1.31574 7.30709L1.3125 7.29965L1.31142 7.29714L1.31101 7.29619C1.31093 7.29601 1.31069 7.29544 2.00005 7L1.31101 7.29619C1.14784 6.91546 1.32388 6.47381 1.70461 6.31064C2.08502 6.14761 2.52551 6.32355 2.689 6.70362C2.68894 6.70349 2.68906 6.70375 2.689 6.70362L2.68996 6.70581L2.69603 6.71953C2.70193 6.73272 2.71152 6.75391 2.72485 6.78248C2.75151 6.83964 2.79308 6.92625 2.84989 7.03747C2.96357 7.2601 3.13774 7.58027 3.37485 7.9596C3.85045 8.72048 4.57169 9.70709 5.55573 10.6216C6.42163 11.4263 7.48271 12.1676 8.75177 12.6558C9.70626 13.023 10.7855 13.25 12 13.25C13.2418 13.25 14.3422 13.0128 15.3125 12.6308C16.5739 12.1343 17.6278 11.3882 18.4868 10.582C19.4563 9.67197 20.1669 8.69516 20.6355 7.94321C20.8691 7.56831 21.0407 7.25227 21.1527 7.03267C21.2086 6.92296 21.2496 6.83757 21.2758 6.78125C21.2889 6.75309 21.2984 6.73223 21.3042 6.71924L21.3102 6.70576L21.3107 6.70456C21.3106 6.70466 21.3107 6.70446 21.3107 6.70456M22.2955 6.31064C21.9149 6.14752 21.474 6.32404 21.3107 6.70456L22.2955 6.31064ZM2.689 6.70362C2.68894 6.70349 2.68906 6.70375 2.689 6.70362V6.70362Z" fill="#828DA9"/>
</svg>
