<svg width="16" height="16" viewBox="0 0 16 16" fill="none" xmlns="http://www.w3.org/2000/svg">
<path d="M8 8.12691L7.48131 8.66863C7.77135 8.94634 8.22865 8.94634 8.51869 8.66863L8 8.12691ZM8 10.8198L8 11.5698L8 10.8198ZM7.53394 9.76158C7.29814 9.56875 7.08335 9.3623 6.93352 9.16386C6.77436 8.95306 6.75 8.83285 6.75 8.79717H5.25C5.25 9.30886 5.49575 9.74897 5.73643 10.0677C5.98644 10.3988 6.30122 10.6912 6.58434 10.9227L7.53394 9.76158ZM6.75 8.79717C6.75 8.64198 6.78762 8.5517 6.81698 8.506C6.84521 8.46204 6.8771 8.44012 6.91062 8.42837C6.96718 8.40854 7.18075 8.38085 7.48131 8.66863L8.51869 7.58519C7.91928 7.01127 7.13286 6.76097 6.4144 7.01282C5.67495 7.27204 5.25 7.97886 5.25 8.79717H6.75ZM9.41566 10.9227C9.69878 10.6912 10.0136 10.3989 10.2636 10.0677C10.5043 9.74896 10.75 9.30886 10.75 8.79716H9.25C9.25 8.83285 9.22564 8.95307 9.06648 9.16387C8.91665 9.3623 8.70186 9.56876 8.46607 9.76159L9.41566 10.9227ZM10.75 8.79716C10.75 7.97885 10.325 7.27203 9.5856 7.01282C8.86714 6.76097 8.08072 7.01127 7.48131 7.58519L8.51869 8.66863C8.81925 8.38085 9.03282 8.40854 9.08938 8.42837C9.12291 8.44012 9.15479 8.46204 9.18302 8.506C9.21238 8.5517 9.25 8.64198 9.25 8.79716H10.75ZM6.58434 10.9227C6.93738 11.2115 7.33425 11.5698 8 11.5698L8 10.0698C7.9684 10.0698 7.95506 10.0665 7.95073 10.0653C7.94624 10.0641 7.93432 10.0606 7.90862 10.0462C7.87985 10.0301 7.83857 10.003 7.77395 9.95393C7.70822 9.90399 7.63419 9.84357 7.53394 9.76158L6.58434 10.9227ZM8.46607 9.76159C8.36581 9.84358 8.29179 9.90399 8.22605 9.95393C8.16144 10.003 8.12016 10.0301 8.09138 10.0462C8.06569 10.0606 8.05376 10.0641 8.04928 10.0653C8.04495 10.0665 8.03161 10.0698 8 10.0698L8 11.5698C8.66575 11.5698 9.06262 11.2115 9.41566 10.9227L8.46607 9.76159Z" fill="#9BA4BA"/>
<path d="M6 4.00065V3.33398C6 2.22941 6.89543 1.33398 8 1.33398C9.10457 1.33398 10 2.22941 10 3.33398V4.00065" stroke="#9BA4BA" stroke-width="1.5" stroke-linecap="round"/>
<path d="M13.4821 8.35046C13.092 6.26968 12.8969 5.22928 12.1563 4.61464C11.4157 4 10.3572 4 8.24016 4H7.75937C5.64233 4 4.58381 4 3.84321 4.61464C3.10261 5.22928 2.90754 6.26968 2.51739 8.35046C1.96877 11.2764 1.69447 12.7394 2.49421 13.703C3.29396 14.6667 4.78243 14.6667 7.75937 14.6667H8.24016C11.2171 14.6667 12.7056 14.6667 13.5053 13.703C13.9693 13.1439 14.0718 12.4168 13.9689 11.3333" stroke="#9BA4BA" stroke-width="1.5" stroke-linecap="round"/>
</svg>
