<svg width="16" height="16" viewBox="0 0 16 16" fill="none" xmlns="http://www.w3.org/2000/svg">
<g clip-path="url(#clip0_665_140112)">
<circle cx="8" cy="8" r="2" stroke="#9BA4BA" stroke-width="1.5"/>
<path d="M2.44114 7.09343C2.75617 7.29137 2.95887 7.62856 2.95887 8.00062C2.95887 8.37266 2.75617 8.70985 2.44114 8.90779C2.22677 9.04248 2.08865 9.15014 1.99038 9.27821C1.77511 9.55875 1.6801 9.91333 1.72626 10.2639C1.76087 10.5269 1.91619 10.7959 2.22682 11.3339C2.53744 11.8719 2.69276 12.1409 2.90317 12.3024C3.18371 12.5177 3.53829 12.6127 3.88888 12.5665C4.04891 12.5454 4.21118 12.4797 4.43496 12.3614C4.76395 12.1875 5.15738 12.1806 5.47963 12.3667C5.80184 12.5527 5.9925 12.8969 6.00641 13.2687C6.01587 13.5217 6.04005 13.6951 6.10182 13.8442C6.23714 14.1709 6.49671 14.4305 6.82341 14.5658C7.06844 14.6673 7.37907 14.6673 8.00033 14.6673C8.62158 14.6673 8.93221 14.6673 9.17724 14.5658C9.50394 14.4305 9.76351 14.1709 9.89883 13.8442C9.9606 13.6951 9.98478 13.5217 9.99424 13.2687C10.0081 12.8969 10.1988 12.5527 10.5211 12.3667C10.8433 12.1806 11.2367 12.1876 11.5656 12.3615C11.7894 12.4797 11.9517 12.5455 12.1118 12.5666C12.4624 12.6128 12.8169 12.5177 13.0975 12.3025C13.3079 12.141 13.4632 11.872 13.7738 11.334C13.9121 11.0945 14.0196 10.9082 14.0994 10.7521M13.5595 8.90786C13.2445 8.70993 13.0418 8.37275 13.0417 8.00071C13.0417 7.62862 13.2444 7.29139 13.5595 7.09343C13.7738 6.95876 13.9119 6.85111 14.0102 6.72305C14.2255 6.4425 14.3205 6.08793 14.2743 5.73733C14.2397 5.47439 14.0844 5.20537 13.7738 4.66735C13.4631 4.12933 13.3078 3.86032 13.0974 3.69886C12.8169 3.48359 12.4623 3.38858 12.1117 3.43474C11.9517 3.45581 11.7894 3.52159 11.5656 3.63987C11.2366 3.81374 10.8432 3.82068 10.521 3.63462C10.1988 3.44859 10.0081 3.10445 9.99424 2.73267C9.98478 2.47966 9.96061 2.30622 9.89883 2.15707C9.76351 1.83037 9.50394 1.5708 9.17724 1.43548C8.93221 1.33398 8.62158 1.33398 8.00032 1.33398C7.37907 1.33398 7.06844 1.33399 6.82341 1.43548C6.49671 1.5708 6.23714 1.83037 6.10182 2.15707C6.04005 2.3062 6.01587 2.47964 6.00641 2.73261C5.9925 3.10442 5.80182 3.44859 5.4796 3.63463C5.15737 3.82066 4.76398 3.81371 4.43502 3.63985C4.21121 3.52156 4.04893 3.45578 3.88889 3.43471C3.53829 3.38855 3.18372 3.48356 2.90317 3.69883C2.69276 3.86028 2.53745 4.12929 2.22682 4.66732C2.08853 4.90684 1.98103 5.09305 1.90125 5.24914" stroke="#9BA4BA" stroke-width="1.5" stroke-linecap="round"/>
</g>
<defs>
<clipPath id="clip0_665_140112">
<rect width="16" height="16" fill="white"/>
</clipPath>
</defs>
</svg>
