<svg width="16" height="15" viewBox="0 0 16 15" fill="none" xmlns="http://www.w3.org/2000/svg">
<path fillrule="evenodd" cliprule="evenodd" d="M4.66683 0.167969C4.94297 0.167969 5.16683 0.391826 5.16683 0.667969V1.17645C5.60818 1.16796 6.09443 1.16796 6.62922 1.16797H9.37111C9.9059 1.16796 10.3921 1.16796 10.8335 1.17645V0.667969C10.8335 0.391826 11.0574 0.167969 11.3335 0.167969C11.6096 0.167969 11.8335 0.391826 11.8335 0.667969V1.21936C12.0068 1.23257 12.1709 1.24918 12.3262 1.27006C13.1078 1.37514 13.7404 1.59656 14.2393 2.09546C14.7382 2.59437 14.9597 3.22701 15.0647 4.00862C15.0983 4.25841 15.1209 4.53103 15.136 4.82802C15.1559 4.88201 15.1668 4.94038 15.1668 5.0013C15.1668 5.04752 15.1606 5.09226 15.1488 5.13475C15.1668 5.6694 15.1668 6.27647 15.1668 6.9637V8.37224C15.1668 9.59742 15.1668 10.5678 15.0647 11.3273C14.9597 12.1089 14.7382 12.7416 14.2393 13.2405C13.7404 13.7394 13.1078 13.9608 12.3262 14.0659C11.5667 14.168 10.5963 14.168 9.3711 14.168H6.62922C5.40405 14.168 4.43362 14.168 3.67415 14.0659C2.89253 13.9608 2.2599 13.7394 1.76099 13.2405C1.26208 12.7416 1.04067 12.1089 0.935586 11.3273C0.833477 10.5678 0.833486 9.59742 0.833496 8.37225V6.96369C0.83349 6.27647 0.833485 5.6694 0.851502 5.13475C0.839766 5.09227 0.833497 5.04752 0.833497 5.0013C0.833497 4.94038 0.844392 4.882 0.864342 4.82801C0.879466 4.53102 0.902003 4.25841 0.935586 4.00862C1.04067 3.22701 1.26208 2.59437 1.76099 2.09546C2.2599 1.59656 2.89253 1.37514 3.67415 1.27006C3.82943 1.24918 3.99353 1.23257 4.16683 1.21936V0.667969C4.16683 0.391826 4.39069 0.167969 4.66683 0.167969ZM1.84222 5.5013C1.83371 5.93645 1.8335 6.43196 1.8335 7.0013V8.33464C1.8335 9.60585 1.83456 10.509 1.92667 11.1941C2.01685 11.8648 2.18596 12.2512 2.4681 12.5334C2.75024 12.8155 3.13667 12.9846 3.8074 13.0748C4.4925 13.1669 5.39562 13.168 6.66683 13.168H9.3335C10.6047 13.168 11.5078 13.1669 12.1929 13.0748C12.8637 12.9846 13.2501 12.8155 13.5322 12.5334C13.8144 12.2512 13.9835 11.8648 14.0737 11.1941C14.1658 10.509 14.1668 9.60585 14.1668 8.33464V7.0013C14.1668 6.43196 14.1666 5.93645 14.1581 5.5013H1.84222ZM14.1124 4.5013H1.88795C1.89863 4.37504 1.9114 4.25546 1.92667 4.14187C2.01685 3.47114 2.18596 3.08471 2.4681 2.80257C2.75024 2.52043 3.13667 2.35132 3.8074 2.26114C4.49251 2.16903 5.39562 2.16797 6.66683 2.16797H9.3335C10.6047 2.16797 11.5078 2.16903 12.1929 2.26114C12.8637 2.35132 13.2501 2.52043 13.5322 2.80257C13.8144 3.08471 13.9835 3.47114 14.0737 4.14187C14.0889 4.25546 14.1017 4.37504 14.1124 4.5013ZM11.0002 9.5013C10.724 9.5013 10.5002 9.72516 10.5002 10.0013C10.5002 10.2774 10.724 10.5013 11.0002 10.5013C11.2763 10.5013 11.5002 10.2774 11.5002 10.0013C11.5002 9.72516 11.2763 9.5013 11.0002 9.5013ZM9.50016 10.0013C9.50016 9.17288 10.1717 8.5013 11.0002 8.5013C11.8286 8.5013 12.5002 9.17288 12.5002 10.0013C12.5002 10.8297 11.8286 11.5013 11.0002 11.5013C10.1717 11.5013 9.50016 10.8297 9.50016 10.0013Z" fill="#828DA9"/>
</svg>
