<svg width="18" height="18" viewBox="0 0 18 18" fill="none" xmlns="http://www.w3.org/2000/svg">
<path d="M8.37513 0.667969C4.85986 0.671396 3.04106 0.734284 1.88718 1.88816C0.733308 3.04204 0.67042 4.86084 0.666992 8.37611H4.76159C4.46911 8.01078 4.25058 7.57985 4.13142 7.1032C3.68287 5.30902 5.30805 3.68385 7.10222 4.13239C7.57888 4.25156 8.0098 4.47009 8.37513 4.76257V0.667969Z" fill="url(#paint0_linear_2947_26631)"/>
<path d="M0.666992 9.62611C0.67042 13.1414 0.733308 14.9602 1.88718 16.1141C3.04106 17.2679 4.85986 17.3308 8.37513 17.3342V10.7708C7.72543 12.0685 6.38349 12.9594 4.83346 12.9594C4.48828 12.9594 4.20846 12.6796 4.20846 12.3344C4.20846 11.9893 4.48828 11.7094 4.83346 11.7094C6.11412 11.7094 7.18717 10.8206 7.46932 9.62611H0.666992Z" fill="url(#paint1_linear_2947_26631)"/>
<path d="M9.62513 17.3342C13.1404 17.3308 14.9592 17.2679 16.1131 16.1141C17.267 14.9602 17.3298 13.1414 17.3333 9.62611H10.5309C10.8131 10.8206 11.8861 11.7094 13.1668 11.7094C13.512 11.7094 13.7918 11.9893 13.7918 12.3344C13.7918 12.6796 13.512 12.9594 13.1668 12.9594C11.6168 12.9594 10.2748 12.0685 9.62513 10.7708V17.3342Z" fill="url(#paint2_linear_2947_26631)"/>
<path d="M17.3333 8.37611C17.3298 4.86084 17.267 3.04204 16.1131 1.88816C14.9592 0.734284 13.1404 0.671396 9.62513 0.667969V4.76257C9.99046 4.47009 10.4214 4.25156 10.898 4.13239C12.6922 3.68385 14.3174 5.30902 13.8688 7.1032C13.7497 7.57985 13.5311 8.01078 13.2387 8.37611H17.3333Z" fill="url(#paint3_linear_2947_26631)"/>
<path d="M6.79905 5.34507C7.72532 5.57664 8.37513 6.40889 8.37513 7.36367V8.37611H7.36269C6.40792 8.37611 5.57566 7.7263 5.34409 6.80003C5.12442 5.92133 5.92035 5.1254 6.79905 5.34507Z" fill="url(#paint4_linear_2947_26631)"/>
<path d="M9.62513 7.36367V8.37611H10.6376C11.5923 8.37611 12.4246 7.7263 12.6562 6.80003C12.8758 5.92133 12.0799 5.1254 11.2012 5.34507C10.2749 5.57664 9.62513 6.40889 9.62513 7.36367Z" fill="url(#paint5_linear_2947_26631)"/>
<defs>
<linearGradient id="paint0_linear_2947_26631" x1="0.666992" y1="9.00111" x2="17.3333" y2="9.00111" gradientUnits="userSpaceOnUse">
<stop stop-color="#982214"/>
<stop offset="1" stop-color="#F8CB48"/>
</linearGradient>
<linearGradient id="paint1_linear_2947_26631" x1="0.666992" y1="9.00111" x2="17.3333" y2="9.00111" gradientUnits="userSpaceOnUse">
<stop stop-color="#982214"/>
<stop offset="1" stop-color="#F8CB48"/>
</linearGradient>
<linearGradient id="paint2_linear_2947_26631" x1="0.666992" y1="9.00111" x2="17.3333" y2="9.00111" gradientUnits="userSpaceOnUse">
<stop stop-color="#982214"/>
<stop offset="1" stop-color="#F8CB48"/>
</linearGradient>
<linearGradient id="paint3_linear_2947_26631" x1="0.666992" y1="9.00111" x2="17.3333" y2="9.00111" gradientUnits="userSpaceOnUse">
<stop stop-color="#982214"/>
<stop offset="1" stop-color="#F8CB48"/>
</linearGradient>
<linearGradient id="paint4_linear_2947_26631" x1="0.666992" y1="9.00111" x2="17.3333" y2="9.00111" gradientUnits="userSpaceOnUse">
<stop stop-color="#982214"/>
<stop offset="1" stop-color="#F8CB48"/>
</linearGradient>
<linearGradient id="paint5_linear_2947_26631" x1="0.666992" y1="9.00111" x2="17.3333" y2="9.00111" gradientUnits="userSpaceOnUse">
<stop stop-color="#982214"/>
<stop offset="1" stop-color="#F8CB48"/>
</linearGradient>
</defs>
</svg>
