<svg width="16" height="16" viewBox="0 0 16 16" fill="none" xmlns="http://www.w3.org/2000/svg">
<g clip-path="url(#clip0_598_73456)">
<path d="M7.85156 6.66797L11.0713 7.5307" stroke="#9BA4BA" stroke-width="1.5" stroke-linecap="round"/>
<path d="M7.33301 8.59766L9.26486 9.11529" stroke="#9BA4BA" stroke-width="1.5" stroke-linecap="round"/>
<path d="M13.5414 8.43021C13.1386 9.9336 12.9372 10.6853 12.4805 11.1728C12.12 11.5578 11.6534 11.8271 11.1398 11.9469C11.0756 11.9619 11.0104 11.9734 10.9437 11.9816C10.3336 12.0569 9.58924 11.8574 8.23417 11.4943C6.73079 11.0915 5.97909 10.8901 5.49157 10.4335C5.10663 10.0729 4.83724 9.60635 4.71748 9.09271C4.5658 8.4422 4.76721 7.6905 5.17005 6.18712L5.51514 4.89921C5.57307 4.683 5.62684 4.48234 5.6778 4.29577C5.98118 3.18508 6.18505 2.57402 6.576 2.15661C6.93654 1.77167 7.40313 1.50228 7.91677 1.38252C8.56728 1.23084 9.31898 1.43225 10.8224 1.83508C12.3258 2.23792 13.0774 2.43933 13.565 2.89595C13.9499 3.25649 14.2193 3.72308 14.3391 4.23672C14.4463 4.69675 14.377 5.20739 14.1847 5.9987" stroke="#9BA4BA" stroke-width="1.5" stroke-linecap="round"/>
<path d="M2.18115 11.098C2.58398 12.6014 2.7854 13.3531 3.24202 13.8406C3.60255 14.2255 4.06915 14.4949 4.58278 14.6147C5.2333 14.7664 5.98499 14.5649 7.48838 14.1621C8.99177 13.7593 9.74346 13.5579 10.231 13.1012C10.5596 12.7935 10.804 12.4084 10.943 11.9827M5.67715 4.29688C5.44213 4.35764 5.18461 4.42664 4.90019 4.50285C3.3968 4.90568 2.64511 5.1071 2.15759 5.56372C1.77264 5.92425 1.50326 6.39084 1.38349 6.90448C1.27622 7.36456 1.34556 7.87524 1.53786 8.66667" stroke="#9BA4BA" stroke-width="1.5" stroke-linecap="round" stroke-linejoin="round"/>
</g>
<defs>
<clipPath id="clip0_598_73456">
<rect width="16" height="16" fill="white"/>
</clipPath>
</defs>
</svg>
