<svg width="20" height="20" viewBox="0 0 20 20" fill="none" xmlns="http://www.w3.org/2000/svg">
<path d="M2.29532 12.2625L2.72669 13.8724C3.23023 15.7516 3.48199 16.6912 4.05276 17.3007C4.50344 17.7818 5.08668 18.1186 5.72872 18.2683C6.54187 18.4579 7.48148 18.2061 9.36071 17.7026L9.36072 17.7026C11.24 17.199 12.1796 16.9473 12.789 16.3765C12.8396 16.3291 12.8885 16.2803 12.9359 16.2301C12.6574 16.2067 12.3765 16.1619 12.091 16.1051C11.5109 15.9898 10.8217 15.8051 10.0065 15.5866L9.91749 15.5628L9.89688 15.5573C9.0099 15.3196 8.26885 15.1206 7.67714 14.9069C7.0549 14.6821 6.48951 14.405 6.0094 13.9553C5.34778 13.3356 4.88478 12.5337 4.67893 11.6509C4.52956 11.0103 4.57227 10.3821 4.68872 9.73079C4.80032 9.10668 5.00075 8.35874 5.24088 7.46262L5.24089 7.46261L5.68621 5.80064L5.70187 5.74219C4.10142 6.17332 3.25901 6.4284 2.69723 6.95457C2.21605 7.40524 1.87932 7.98848 1.72961 8.63053C1.54001 9.44367 1.79178 10.3833 2.29532 12.2625Z" fill="url(#paint0_linear_2947_24604)"/>
<path fill-rule="evenodd" clip-rule="evenodd" d="M17.3579 8.93082L16.9265 10.5407C16.423 12.4199 16.1712 13.3595 15.6004 13.969C15.1498 14.4501 14.5665 14.7869 13.9245 14.9366C13.8442 14.9553 13.7628 14.9697 13.6793 14.98C12.9168 15.074 11.9863 14.8247 10.2925 14.3709C8.41324 13.8673 7.47362 13.6155 6.86422 13.0448C6.38304 12.5941 6.04631 12.0109 5.8966 11.3688C5.707 10.5557 5.95877 9.61606 6.46231 7.73682L6.89368 6.12695C6.96608 5.85675 7.03332 5.6058 7.097 5.37265C7.47623 3.98428 7.73107 3.22045 8.21976 2.69869C8.67043 2.21751 9.25367 1.88078 9.89572 1.73108C10.7089 1.54148 11.6485 1.79325 13.5277 2.29679C15.4069 2.80032 16.3466 3.05209 16.956 3.62286C17.4371 4.07354 17.7739 4.65677 17.9236 5.29882C18.1132 6.11197 17.8614 7.05159 17.3579 8.93082ZM9.21051 8.17287C9.29984 7.83946 9.64255 7.64159 9.97597 7.73093L14.0007 8.80934C14.3341 8.89868 14.5319 9.24139 14.4426 9.57481C14.3533 9.90823 14.0106 10.1061 13.6771 10.0168L9.65245 8.93834C9.31903 8.849 9.12117 8.50629 9.21051 8.17287ZM8.56313 10.5874C8.65246 10.254 8.99518 10.0561 9.32859 10.1455L11.7434 10.7925C12.0768 10.8819 12.2747 11.2246 12.1853 11.558C12.096 11.8914 11.7533 12.0893 11.4199 11.9999L9.00507 11.3529C8.67165 11.2636 8.47379 10.9208 8.56313 10.5874Z" fill="url(#paint1_linear_2947_24604)"/>
<defs>
<linearGradient id="paint0_linear_2947_24604" x1="1.6665" y1="12.0368" x2="12.9359" y2="12.0368" gradientUnits="userSpaceOnUse">
<stop stop-color="#982214"/>
<stop offset="1" stop-color="#F8CB48"/>
</linearGradient>
<linearGradient id="paint1_linear_2947_24604" x1="5.8335" y1="8.33382" x2="17.9867" y2="8.33382" gradientUnits="userSpaceOnUse">
<stop stop-color="#982214"/>
<stop offset="1" stop-color="#F8CB48"/>
</linearGradient>
</defs>
</svg>
