<svg width="18" height="15" viewBox="0 0 18 15" fill="none" xmlns="http://www.w3.org/2000/svg">
<path fill-rule="evenodd" clip-rule="evenodd" d="M14.3917 14.1073C14.6358 14.3514 15.0315 14.3514 15.2756 14.1073L16.9423 12.4406C17.1863 12.1966 17.1863 11.8008 16.9423 11.5568C16.6982 11.3127 16.3025 11.3127 16.0584 11.5568L15.4587 12.1565V8.66536C15.4587 8.32019 15.1788 8.04036 14.8337 8.04036C14.4885 8.04036 14.2087 8.32019 14.2087 8.66536V12.1565L13.6089 11.5568C13.3649 11.3127 12.9691 11.3127 12.7251 11.5568C12.481 11.8008 12.481 12.1966 12.7251 12.4406L14.3917 14.1073Z" fill="#00AF50"/>
<path d="M7.33366 0.332031H10.667C13.8097 0.332031 15.381 0.332031 16.3573 1.30834C17.0603 2.01129 17.2571 3.02272 17.3122 4.70703H0.688423C0.743531 3.02272 0.940352 2.01129 1.6433 1.30834C2.61961 0.332031 4.19096 0.332031 7.33366 0.332031Z" fill="#00AF50"/>
<path fill-rule="evenodd" clip-rule="evenodd" d="M7.33366 13.6654H10.667C11.2166 13.6654 11.7181 13.6654 12.1768 13.6601L11.8412 13.3245C11.1089 12.5923 11.1089 11.4051 11.8412 10.6729C12.1542 10.3598 12.5504 10.1806 12.9587 10.1352V8.66536C12.9587 7.62983 13.7981 6.79036 14.8337 6.79036C15.8692 6.79036 16.7087 7.62983 16.7087 8.66536V10.1352C16.8952 10.156 17.0792 10.2046 17.254 10.2813C17.3337 9.42966 17.3337 8.36204 17.3337 6.9987C17.3337 6.63042 17.3337 6.28372 17.3321 5.95703H0.668563C0.666992 6.28372 0.666992 6.63042 0.666992 6.9987C0.666992 10.1414 0.666992 11.7127 1.6433 12.6891C2.61961 13.6654 4.19096 13.6654 7.33366 13.6654ZM4.00033 9.70703C3.65515 9.70703 3.37533 9.98685 3.37533 10.332C3.37533 10.6772 3.65515 10.957 4.00033 10.957H7.33366C7.67884 10.957 7.95866 10.6772 7.95866 10.332C7.95866 9.98685 7.67884 9.70703 7.33366 9.70703H4.00033ZM9.41699 9.70703C9.07181 9.70703 8.79199 9.98685 8.79199 10.332C8.79199 10.6772 9.07181 10.957 9.41699 10.957H10.667C11.0122 10.957 11.292 10.6772 11.292 10.332C11.292 9.98685 11.0122 9.70703 10.667 9.70703H9.41699Z" fill="#00AF50"/>
</svg>
