<svg width="16" height="16" viewBox="0 0 16 16" fill="none" xmlns="http://www.w3.org/2000/svg">
<path d="M10 5.9987L12.6667 3.33203M12.6667 3.33203V5.33203M12.6667 3.33203H10.6667" stroke="#A58730" stroke-width="1.5" stroke-linecap="round" stroke-linejoin="round"/>
<path d="M2.67136 5.29003C2.62314 6.56212 2.94508 8.72245 5.11213 10.8895C5.63493 11.4123 6.15735 11.8277 6.66699 12.1565M3.6922 3.29279C4.62083 2.36416 6.10244 2.48893 6.69205 3.54542L7.12473 4.3207C7.51519 5.02036 7.35845 5.93818 6.74347 6.55317C6.74347 6.55317 6.74347 6.55317 6.74346 6.55317C6.74335 6.55328 5.99761 7.29924 7.35 8.65162C8.70174 10.0034 9.44764 9.25897 9.44846 9.25816C9.44848 9.25814 9.44847 9.25815 9.44849 9.25813C10.0635 8.64317 10.9813 8.48644 11.6809 8.8769L12.4562 9.30957C13.5127 9.89919 13.6375 11.3808 12.7088 12.3094C12.1508 12.8674 11.4673 13.3016 10.7116 13.3303C10.1689 13.3508 9.46456 13.304 8.66699 13.0754" stroke="#A58730" stroke-width="1.5" stroke-linecap="round"/>
</svg>
