<svg width="16" height="16" viewBox="0 0 16 16" fill="none" xmlns="http://www.w3.org/2000/svg">
<path fillrule="evenodd" cliprule="evenodd" d="M2.16699 14.668C2.16699 14.3918 2.39085 14.168 2.66699 14.168H13.3337C13.6098 14.168 13.8337 14.3918 13.8337 14.668C13.8337 14.9441 13.6098 15.168 13.3337 15.168H2.66699C2.39085 15.168 2.16699 14.9441 2.16699 14.668Z" fill="#A58730"/>
<path d="M7.68037 9.95134L7.68038 9.95133L11.6248 6.00687C11.088 5.78343 10.4522 5.41641 9.85081 4.81506C9.24937 4.21362 8.88232 3.57767 8.6589 3.04078L4.71437 6.98531L4.71435 6.98532C4.40655 7.29313 4.25263 7.44704 4.12027 7.61674C3.96413 7.81693 3.83026 8.03353 3.72104 8.26271C3.62845 8.457 3.55962 8.66349 3.42196 9.07647L2.69603 11.2543C2.62829 11.4575 2.68118 11.6815 2.83266 11.833C2.98414 11.9845 3.20821 12.0374 3.41144 11.9697L5.58922 11.2437C6.0022 11.1061 6.2087 11.0372 6.40298 10.9446C6.63216 10.8354 6.84876 10.7016 7.04895 10.5454C7.21864 10.4131 7.37257 10.2591 7.68037 9.95134Z" fill="#A58730"/>
<path d="M12.7194 4.91233C13.5384 4.09329 13.5384 2.76536 12.7194 1.94631C11.9003 1.12727 10.5724 1.12727 9.75336 1.94631L9.28028 2.4194C9.28675 2.43896 9.29347 2.4588 9.30044 2.47889C9.47385 2.9787 9.80102 3.6339 10.4165 4.24938C11.032 4.86485 11.6872 5.19202 12.187 5.36543C12.207 5.37237 12.2267 5.37906 12.2462 5.38551L12.7194 4.91233Z" fill="#A58730"/>
</svg>
