<svg width="24" height="24" viewBox="0 0 24 24" fill="none" xmlns="http://www.w3.org/2000/svg">
<rect x="0.5" y="0.5" width="23" height="23" rx="11.5" fill="#FEF5DA"/>
<rect x="0.5" y="0.5" width="23" height="23" rx="11.5" stroke="#A58730"/>
<path fillrule="evenodd" cliprule="evenodd" d="M6.1665 18.668C6.1665 18.3918 6.39036 18.168 6.6665 18.168H17.3332C17.6093 18.168 17.8332 18.3918 17.8332 18.668C17.8332 18.9441 17.6093 19.168 17.3332 19.168H6.6665C6.39036 19.168 6.1665 18.9441 6.1665 18.668Z" fill="#A58730"/>
<path d="M11.6799 13.9513L11.6799 13.9513L15.6243 10.0069C15.0875 9.78343 14.4517 9.41641 13.8503 8.81506C13.2489 8.21362 12.8818 7.57767 12.6584 7.04078L8.71388 10.9853L8.71387 10.9853C8.40606 11.2931 8.25214 11.447 8.11978 11.6167C7.96364 11.8169 7.82978 12.0335 7.72055 12.2627C7.62796 12.457 7.55913 12.6635 7.42147 13.0765L6.69554 15.2543C6.6278 15.4575 6.68069 15.6815 6.83217 15.833C6.98365 15.9845 7.20772 16.0374 7.41095 15.9697L9.58873 15.2437C10.0017 15.1061 10.2082 15.0372 10.4025 14.9446C10.6317 14.8354 10.8483 14.7016 11.0485 14.5454C11.2182 14.4131 11.3721 14.2591 11.6799 13.9513Z" fill="#A58730"/>
<path d="M16.7189 8.91233C17.5379 8.09329 17.5379 6.76536 16.7189 5.94631C15.8998 5.12727 14.5719 5.12727 13.7529 5.94631L13.2798 6.4194C13.2863 6.43896 13.293 6.4588 13.3 6.47889C13.4734 6.9787 13.8005 7.6339 14.416 8.24938C15.0315 8.86485 15.6867 9.19202 16.1865 9.36543C16.2065 9.37237 16.2262 9.37906 16.2457 9.38551L16.7189 8.91233Z" fill="#A58730"/>
</svg>
