<svg width="16" height="16" viewBox="0 0 16 16" fill="none" xmlns="http://www.w3.org/2000/svg">
<g clip-path="url(#clip0_1955_95463)">
<path d="M8 10.6654V5.33203" stroke="#A58730" stroke-width="1.5" stroke-linecap="round"/>
<path d="M5.33301 9.33464V6.66797" stroke="#A58730" stroke-width="1.5" stroke-linecap="round"/>
<path d="M10.667 9.33464V6.66797" stroke="#A58730" stroke-width="1.5" stroke-linecap="round"/>
<path d="M11.3337 2.22391C10.3531 1.65668 9.21462 1.33203 8.00033 1.33203C4.31843 1.33203 1.33366 4.3168 1.33366 7.9987C1.33366 9.06515 1.58407 10.0731 2.0293 10.967C2.14762 11.2046 2.187 11.4761 2.1184 11.7324L1.72133 13.2165C1.54896 13.8607 2.13833 14.4501 2.78256 14.2777L4.26658 13.8806C4.52295 13.812 4.79446 13.8514 5.03201 13.9697C5.9259 14.415 6.93387 14.6654 8.00033 14.6654C11.6822 14.6654 14.667 11.6806 14.667 7.9987C14.667 6.78441 14.3423 5.64594 13.7751 4.66536" stroke="#A58730" stroke-width="1.5" stroke-linecap="round"/>
</g>
<defs>
<clipPath id="clip0_1955_95463">
<rect width="16" height="16" fill="white"/>
</clipPath>
</defs>
</svg>
