<svg width="17" height="18" viewBox="0 0 17 18" fill="none" xmlns="http://www.w3.org/2000/svg">
<path fill-rule="evenodd" clip-rule="evenodd" d="M9.89901 0.794836C9.59039 0.667969 9.19915 0.667969 8.41667 0.667969C7.63418 0.667969 7.24294 0.667969 6.93433 0.794836C6.52284 0.963993 6.19591 1.28845 6.02546 1.69683C5.94766 1.88325 5.91721 2.10005 5.90529 2.41629C5.88778 2.88104 5.64763 3.31121 5.2418 3.54374C4.83598 3.77627 4.34053 3.76759 3.92624 3.55027C3.64432 3.40239 3.43991 3.32015 3.23832 3.29382C2.79674 3.23612 2.35015 3.35488 1.9968 3.62397C1.73178 3.82579 1.53616 4.16205 1.14492 4.83458C0.753678 5.50711 0.558058 5.84337 0.514456 6.17206C0.45632 6.6103 0.575984 7.05352 0.847122 7.4042C0.970879 7.56427 1.14481 7.69882 1.41475 7.86716C1.8116 8.11462 2.06693 8.53618 2.06691 9.00132C2.06688 9.46641 1.81155 9.88791 1.41475 10.1353C1.14476 10.3037 0.97081 10.4383 0.84704 10.5983C0.575902 10.949 0.456238 11.3922 0.514374 11.8305C0.557975 12.1592 0.753596 12.4954 1.14484 13.168C1.53608 13.8405 1.7317 14.1768 1.99671 14.3786C2.35007 14.6477 2.79666 14.7664 3.23824 14.7087C3.43981 14.6824 3.64421 14.6002 3.92611 14.4523C4.34043 14.235 4.83592 14.2263 5.24177 14.4588C5.64762 14.6914 5.88778 15.1216 5.90529 15.5864C5.91721 15.9026 5.94766 16.1194 6.02546 16.3058C6.19591 16.7142 6.52284 17.0386 6.93433 17.2078C7.24294 17.3346 7.63418 17.3346 8.41667 17.3346C9.19915 17.3346 9.59039 17.3346 9.89901 17.2078C10.3105 17.0386 10.6374 16.7142 10.8079 16.3058C10.8857 16.1193 10.9161 15.9025 10.928 15.5863C10.9456 15.1216 11.1857 14.6914 11.5915 14.4588C11.9973 14.2263 12.4928 14.2349 12.9072 14.4523C13.1891 14.6001 13.3934 14.6823 13.595 14.7087C14.0366 14.7664 14.4832 14.6476 14.8365 14.3785C15.1016 14.1767 15.2972 13.8404 15.6884 13.1679C16.0797 12.4954 16.2753 12.1591 16.3189 11.8304C16.377 11.3922 16.2573 10.949 15.9862 10.5983C15.8624 10.4382 15.6885 10.3037 15.4185 10.1353C15.0217 9.88786 14.7664 9.46633 14.7664 9.00123C14.7664 8.53618 15.0218 8.11471 15.4185 7.86729C15.6885 7.69892 15.8625 7.56435 15.9863 7.40426C16.2574 7.05358 16.3771 6.61036 16.319 6.17211C16.2754 5.84343 16.0797 5.50716 15.6885 4.83464C15.2973 4.16211 15.1016 3.82584 14.8366 3.62403C14.4833 3.35494 14.0367 3.23618 13.5951 3.29387C13.3935 3.32021 13.1891 3.40243 12.9072 3.5503C12.4929 3.76763 11.9974 3.77632 11.5916 3.54377C11.1857 3.31122 10.9456 2.88102 10.928 2.41625C10.9161 2.10003 10.8857 1.88324 10.8079 1.69683C10.6374 1.28845 10.3105 0.963993 9.89901 0.794836ZM8.41667 11.5013C9.80789 11.5013 10.9357 10.382 10.9357 9.0013C10.9357 7.62059 9.80789 6.5013 8.41667 6.5013C7.02544 6.5013 5.89763 7.62059 5.89763 9.0013C5.89763 10.382 7.02544 11.5013 8.41667 11.5013Z" fill="url(#paint0_linear_2947_15176)"/>
<defs>
<linearGradient id="paint0_linear_2947_15176" x1="0.5" y1="9.0013" x2="16.3333" y2="9.0013" gradientUnits="userSpaceOnUse">
<stop stop-color="#982214"/>
<stop offset="1" stop-color="#F8CB48"/>
</linearGradient>
</defs>
</svg>
