<svg width="16" height="16" viewBox="0 0 16 16" fill="none" xmlns="http://www.w3.org/2000/svg">
<path d="M7.99967 7.73568C8.92015 7.73568 9.66634 6.98949 9.66634 6.06901C9.66634 5.14854 8.92015 4.40234 7.99967 4.40234C7.0792 4.40234 6.33301 5.14854 6.33301 6.06901C6.33301 6.98949 7.0792 7.73568 7.99967 7.73568Z" stroke="#9BA4BA" stroke-width="1.5" stroke-linecap="round" stroke-linejoin="round"/>
<path d="M4.69727 12.4705C5.20127 8.78586 10.7986 8.78586 11.3026 12.4705" stroke="#9BA4BA" stroke-width="1.5" stroke-linecap="round" stroke-linejoin="round"/>
<path d="M13.6663 10.5341V5.46743C13.666 5.24566 13.6078 5.02781 13.4974 4.83546C13.387 4.64311 13.2283 4.48292 13.037 4.37076L8.62901 1.83743C8.43785 1.72643 8.22073 1.66797 7.99968 1.66797C7.77863 1.66797 7.56151 1.72643 7.37034 1.83743L2.96234 4.37076C2.77057 4.48241 2.6115 4.64249 2.50105 4.83495C2.3906 5.02742 2.33266 5.24552 2.33301 5.46743V10.5354C2.33344 10.7571 2.39173 10.9748 2.5021 11.167C2.61248 11.3592 2.77112 11.5193 2.96234 11.6314L7.37034 14.1648C7.56151 14.2758 7.77863 14.3342 7.99968 14.3342C8.22073 14.3342 8.43785 14.2758 8.62901 14.1648L13.037 11.6314C13.2289 11.5197 13.388 11.3595 13.4985 11.1669C13.6089 10.9744 13.6668 10.7561 13.6663 10.5341Z" stroke="#9BA4BA" stroke-width="1.5" stroke-linecap="round" stroke-linejoin="round"/>
</svg>
