<svg width="20" height="20" viewBox="0 0 20 20" fill="none" xmlns="http://www.w3.org/2000/svg">
<path d="M16.1263 6.34851L12.8273 3.37943C11.8874 2.53354 11.4175 2.11059 10.8409 1.88932L10.8332 4.16806C10.8332 6.13224 10.8332 7.11434 11.4434 7.72453C12.0536 8.33472 13.0357 8.33472 14.9998 8.33472H17.9832C17.6811 7.74787 17.1401 7.261 16.1263 6.34851Z" fill="url(#paint0_linear_4033_21417)"/>
<path fill-rule="evenodd" clip-rule="evenodd" d="M11.6665 18.3346H8.33317C5.19047 18.3346 3.61913 18.3346 2.64281 17.3583C1.6665 16.382 1.6665 14.8107 1.6665 11.668V8.33464C1.6665 5.19194 1.6665 3.62059 2.64281 2.64428C3.61913 1.66797 5.19875 1.66797 8.358 1.66797C8.863 1.66797 9.26767 1.66797 9.60818 1.68185C9.59697 1.74846 9.5911 1.81641 9.59086 1.88511L9.58317 4.24711C9.5831 5.16136 9.58303 5.96934 9.67059 6.6206C9.7655 7.32653 9.98342 8.03236 10.5595 8.60841C11.1355 9.18447 11.8414 9.40239 12.5473 9.4973C13.1986 9.58486 14.0065 9.5848 14.9208 9.58473L14.9998 9.58472H18.2977C18.3332 10.0299 18.3332 10.5764 18.3332 11.3037V11.668C18.3332 14.8107 18.3332 16.382 17.3569 17.3583C16.3806 18.3346 14.8092 18.3346 11.6665 18.3346ZM8.29347 11.0004L8.21155 10.8534C7.89488 10.2853 7.73655 10.0013 7.49984 10.0013C7.26312 10.0013 7.10479 10.2853 6.78813 10.8534L6.7062 11.0004C6.61622 11.1618 6.57123 11.2425 6.50107 11.2958C6.43092 11.349 6.34355 11.3688 6.16881 11.4083L6.00972 11.4443C5.3948 11.5834 5.08734 11.653 5.01419 11.8882C4.94104 12.1235 5.15065 12.3686 5.56986 12.8588L5.67832 12.9856C5.79744 13.1249 5.85701 13.1946 5.8838 13.2807C5.9106 13.3669 5.90159 13.4598 5.88358 13.6457L5.86719 13.8149C5.80381 14.469 5.77212 14.796 5.96362 14.9414C6.15513 15.0867 6.44301 14.9542 7.01876 14.6891L7.16771 14.6205C7.33132 14.5452 7.41312 14.5075 7.49984 14.5075C7.58655 14.5075 7.66836 14.5452 7.83197 14.6205L7.98092 14.6891C8.55667 14.9542 8.84454 15.0867 9.03605 14.9414C9.22756 14.796 9.19587 14.469 9.13249 13.8149L9.11609 13.6457C9.09808 13.4598 9.08908 13.3669 9.11587 13.2807C9.14267 13.1946 9.20223 13.1249 9.32136 12.9856L9.42981 12.8588C9.84903 12.3686 10.0586 12.1235 9.98548 11.8882C9.91233 11.653 9.60487 11.5834 8.98995 11.4443L8.83087 11.4083C8.65613 11.3688 8.56875 11.349 8.4986 11.2958C8.42845 11.2425 8.38346 11.1618 8.29347 11.0004Z" fill="url(#paint1_linear_4033_21417)"/>
<defs>
<linearGradient id="paint0_linear_4033_21417" x1="1.6665" y1="10.0013" x2="18.3332" y2="10.0013" gradientUnits="userSpaceOnUse">
<stop stop-color="#982214"/>
<stop offset="1" stop-color="#F8CB48"/>
</linearGradient>
<linearGradient id="paint1_linear_4033_21417" x1="1.6665" y1="10.0013" x2="18.3332" y2="10.0013" gradientUnits="userSpaceOnUse">
<stop stop-color="#982214"/>
<stop offset="1" stop-color="#F8CB48"/>
</linearGradient>
</defs>
</svg>
